<?xml version="1.0" encoding="UTF-8" standalone="no"?>
<!DOCTYPE svg PUBLIC "-//W3C//DTD SVG 1.1//EN"
 "http://www.w3.org/Graphics/SVG/1.1/DTD/svg11.dtd">
<!-- Generated by graphviz version 2.30.1 (20180420.1509)
 -->
<!-- Title: %3 Pages: 1 -->
<svg width="498pt" height="604pt"
 viewBox="0.00 0.00 498.00 604.00" xmlns="http://www.w3.org/2000/svg" xmlns:xlink="http://www.w3.org/1999/xlink">
<g id="graph0" class="graph" transform="scale(1 1) rotate(0) translate(4 600)">
<title>%3</title>
<polygon fill="white" stroke="white" points="-4,5 -4,-600 495,-600 495,5 -4,5"/>
<!-- 0 -->
<g id="node1" class="node"><title>0</title>
<ellipse fill="none" stroke="black" cx="157" cy="-578" rx="27" ry="18"/>
<text text-anchor="middle" x="157" y="-574.3" font-family="Times,serif" font-size="14.00">0</text>
</g>
<!-- 28 -->
<g id="node2" class="node"><title>28</title>
<ellipse fill="none" stroke="orange" cx="43" cy="-498" rx="27" ry="18"/>
<text text-anchor="middle" x="43" y="-494.3" font-family="Times,serif" font-size="14.00">28</text>
</g>
<!-- 0&#45;&gt;28 -->
<g id="edge1" class="edge"><title>0&#45;&gt;28</title>
<path fill="none" stroke="black" d="M129.834,-576.601C103.89,-574.623 65.8879,-567.232 46,-542 42.4678,-537.519 40.7736,-531.892 40.1358,-526.2"/>
<polygon fill="black" stroke="black" points="43.6339,-526.054 39.96,-516.117 36.635,-526.176 43.6339,-526.054"/>
<text text-anchor="middle" x="147.5" y="-536.7" font-family="Times,serif" font-size="6.00">*[[84, 65],[84, 65]],[[84, 97],[84, 97]],[[116, 65],[116, 65]],[[116, 97],[116, 97]]*</text>
</g>
<!-- 30 -->
<g id="node3" class="node"><title>30</title>
<ellipse fill="none" stroke="orange" cx="274" cy="-498" rx="27" ry="18"/>
<text text-anchor="middle" x="274" y="-494.3" font-family="Times,serif" font-size="14.00">30</text>
</g>
<!-- 0&#45;&gt;30 -->
<g id="edge2" class="edge"><title>0&#45;&gt;30</title>
<path fill="none" stroke="black" d="M182.825,-572.111C202.73,-567.26 229.979,-558.147 249,-542 254.573,-537.269 259.194,-530.965 262.883,-524.645"/>
<polygon fill="black" stroke="black" points="266.102,-526.042 267.624,-515.557 259.896,-522.804 266.102,-526.042"/>
<text text-anchor="middle" x="308" y="-536.7" font-family="Times,serif" font-size="6.00">*[[0, 84],[255, 84]],[[0, 116],[255, 116]]*</text>
</g>
<!-- 26 -->
<g id="node14" class="node"><title>26</title>
<ellipse fill="none" stroke="red" cx="37" cy="-418" rx="27" ry="18"/>
<text text-anchor="middle" x="37" y="-414.3" font-family="Times,serif" font-size="14.00">26</text>
</g>
<!-- 28&#45;&gt;26 -->
<g id="edge13" class="edge"><title>28&#45;&gt;26</title>
<path fill="none" stroke="black" d="M41.6684,-479.689C40.9097,-469.826 39.9422,-457.248 39.0849,-446.104"/>
<polygon fill="black" stroke="black" points="42.564,-445.696 38.3072,-435.994 35.5846,-446.233 42.564,-445.696"/>
<text text-anchor="middle" x="148.5" y="-456.7" font-family="Times,serif" font-size="6.00">*[[82, 71],[82, 71]],[[82, 103],[82, 103]],[[114, 71],[114, 71]],[[114, 103],[114, 103]]*</text>
</g>
<!-- 27 -->
<g id="node15" class="node"><title>27</title>
<ellipse fill="none" stroke="red" cx="275" cy="-418" rx="27" ry="18"/>
<text text-anchor="middle" x="275" y="-414.3" font-family="Times,serif" font-size="14.00">27</text>
</g>
<!-- 30&#45;&gt;27 -->
<g id="edge14" class="edge"><title>30&#45;&gt;27</title>
<path fill="none" stroke="black" d="M274.222,-479.689C274.348,-469.894 274.507,-457.422 274.65,-446.335"/>
<polygon fill="black" stroke="black" points="278.15,-446.306 274.779,-436.262 271.151,-446.217 278.15,-446.306"/>
<text text-anchor="middle" x="375.5" y="-456.7" font-family="Times,serif" font-size="6.00">*[[65, 82],[65, 82]],[[65, 114],[65, 114]],[[97, 82],[97, 82]],[[97, 114],[97, 114]]*</text>
</g>
<!-- 16,22,1 -->
<g id="node4" class="node"><title>16,22,1</title>
<ellipse fill="none" stroke="blue" cx="37" cy="-18" rx="37.5442" ry="18"/>
<text text-anchor="middle" x="37" y="-14.3" font-family="Times,serif" font-size="14.00">16,22,1</text>
</g>
<!-- 17,22,0 -->
<g id="node5" class="node"><title>17,22,0</title>
<ellipse fill="none" stroke="blue" cx="275" cy="-18" rx="37.5442" ry="18"/>
<text text-anchor="middle" x="275" y="-14.3" font-family="Times,serif" font-size="14.00">17,22,0</text>
</g>
<!-- 18 -->
<g id="node6" class="node"><title>18</title>
<ellipse fill="none" stroke="red" cx="37" cy="-98" rx="27" ry="18"/>
<text text-anchor="middle" x="37" y="-94.3" font-family="Times,serif" font-size="14.00">18</text>
</g>
<!-- 18&#45;&gt;16,22,1 -->
<g id="edge3" class="edge"><title>18&#45;&gt;16,22,1</title>
<path fill="none" stroke="black" d="M37,-79.6893C37,-69.8938 37,-57.4218 37,-46.335"/>
<polygon fill="black" stroke="black" points="40.5001,-46.2623 37,-36.2623 33.5001,-46.2624 40.5001,-46.2623"/>
<text text-anchor="middle" x="86" y="-56.7" font-family="Times,serif" font-size="6.00">*[[47, 0],[47, 255]],[[92, 0],[92, 255]]*</text>
</g>
<!-- 19 -->
<g id="node7" class="node"><title>19</title>
<ellipse fill="none" stroke="red" cx="275" cy="-98" rx="27" ry="18"/>
<text text-anchor="middle" x="275" y="-94.3" font-family="Times,serif" font-size="14.00">19</text>
</g>
<!-- 19&#45;&gt;17,22,0 -->
<g id="edge4" class="edge"><title>19&#45;&gt;17,22,0</title>
<path fill="none" stroke="black" d="M275,-79.6893C275,-69.8938 275,-57.4218 275,-46.335"/>
<polygon fill="black" stroke="black" points="278.5,-46.2623 275,-36.2623 271.5,-46.2624 278.5,-46.2623"/>
<text text-anchor="middle" x="324" y="-56.7" font-family="Times,serif" font-size="6.00">*[[46, 47],[46, 47]],[[46, 92],[46, 92]]*</text>
</g>
<!-- 20 -->
<g id="node8" class="node"><title>20</title>
<ellipse fill="none" stroke="red" cx="37" cy="-178" rx="27" ry="18"/>
<text text-anchor="middle" x="37" y="-174.3" font-family="Times,serif" font-size="14.00">20</text>
</g>
<!-- 20&#45;&gt;18 -->
<g id="edge5" class="edge"><title>20&#45;&gt;18</title>
<path fill="none" stroke="black" d="M37,-159.689C37,-149.894 37,-137.422 37,-126.335"/>
<polygon fill="black" stroke="black" points="40.5001,-126.262 37,-116.262 33.5001,-126.262 40.5001,-126.262"/>
<text text-anchor="middle" x="63" y="-136.7" font-family="Times,serif" font-size="6.00">*[[46, 46],[46, 46]]*</text>
</g>
<!-- 21 -->
<g id="node9" class="node"><title>21</title>
<ellipse fill="none" stroke="red" cx="275" cy="-178" rx="27" ry="18"/>
<text text-anchor="middle" x="275" y="-174.3" font-family="Times,serif" font-size="14.00">21</text>
</g>
<!-- 21&#45;&gt;19 -->
<g id="edge6" class="edge"><title>21&#45;&gt;19</title>
<path fill="none" stroke="black" d="M275,-159.689C275,-149.894 275,-137.422 275,-126.335"/>
<polygon fill="black" stroke="black" points="278.5,-126.262 275,-116.262 271.5,-126.262 278.5,-126.262"/>
<text text-anchor="middle" x="324" y="-136.7" font-family="Times,serif" font-size="6.00">*[[47, 46],[47, 46]],[[92, 46],[92, 46]]*</text>
</g>
<!-- 22 -->
<g id="node10" class="node"><title>22</title>
<ellipse fill="none" stroke="red" cx="37" cy="-258" rx="27" ry="18"/>
<text text-anchor="middle" x="37" y="-254.3" font-family="Times,serif" font-size="14.00">22</text>
</g>
<!-- 22&#45;&gt;20 -->
<g id="edge7" class="edge"><title>22&#45;&gt;20</title>
<path fill="none" stroke="black" d="M37,-239.689C37,-229.894 37,-217.422 37,-206.335"/>
<polygon fill="black" stroke="black" points="40.5001,-206.262 37,-196.262 33.5001,-206.262 40.5001,-206.262"/>
<text text-anchor="middle" x="86" y="-216.7" font-family="Times,serif" font-size="6.00">*[[46, 47],[46, 47]],[[46, 92],[46, 92]]*</text>
</g>
<!-- 23 -->
<g id="node11" class="node"><title>23</title>
<ellipse fill="none" stroke="red" cx="275" cy="-258" rx="27" ry="18"/>
<text text-anchor="middle" x="275" y="-254.3" font-family="Times,serif" font-size="14.00">23</text>
</g>
<!-- 23&#45;&gt;21 -->
<g id="edge8" class="edge"><title>23&#45;&gt;21</title>
<path fill="none" stroke="black" d="M275,-239.689C275,-229.894 275,-217.422 275,-206.335"/>
<polygon fill="black" stroke="black" points="278.5,-206.262 275,-196.262 271.5,-206.262 278.5,-206.262"/>
<text text-anchor="middle" x="301" y="-216.7" font-family="Times,serif" font-size="6.00">*[[46, 46],[46, 46]]*</text>
</g>
<!-- 24 -->
<g id="node12" class="node"><title>24</title>
<ellipse fill="none" stroke="red" cx="37" cy="-338" rx="27" ry="18"/>
<text text-anchor="middle" x="37" y="-334.3" font-family="Times,serif" font-size="14.00">24</text>
</g>
<!-- 24&#45;&gt;22 -->
<g id="edge9" class="edge"><title>24&#45;&gt;22</title>
<path fill="none" stroke="black" d="M37,-319.689C37,-309.894 37,-297.422 37,-286.335"/>
<polygon fill="black" stroke="black" points="40.5001,-286.262 37,-276.262 33.5001,-286.262 40.5001,-286.262"/>
<text text-anchor="middle" x="63" y="-296.7" font-family="Times,serif" font-size="6.00">*[[61, 46],[61, 46]]*</text>
</g>
<!-- 25 -->
<g id="node13" class="node"><title>25</title>
<ellipse fill="none" stroke="red" cx="275" cy="-338" rx="27" ry="18"/>
<text text-anchor="middle" x="275" y="-334.3" font-family="Times,serif" font-size="14.00">25</text>
</g>
<!-- 25&#45;&gt;23 -->
<g id="edge10" class="edge"><title>25&#45;&gt;23</title>
<path fill="none" stroke="black" d="M275,-319.689C275,-309.894 275,-297.422 275,-286.335"/>
<polygon fill="black" stroke="black" points="278.5,-286.262 275,-276.262 271.5,-286.262 278.5,-286.262"/>
<text text-anchor="middle" x="327" y="-296.7" font-family="Times,serif" font-size="6.00">*[[84, 61],[84, 61]],[[116, 61],[116, 61]]*</text>
</g>
<!-- 26&#45;&gt;24 -->
<g id="edge11" class="edge"><title>26&#45;&gt;24</title>
<path fill="none" stroke="black" d="M37,-399.689C37,-389.894 37,-377.422 37,-366.335"/>
<polygon fill="black" stroke="black" points="40.5001,-366.262 37,-356.262 33.5001,-366.262 40.5001,-366.262"/>
<text text-anchor="middle" x="144.5" y="-376.7" font-family="Times,serif" font-size="6.00">*[[69, 84],[69, 84]],[[69, 116],[69, 116]],[[101, 84],[101, 84]],[[101, 116],[101, 116]]*</text>
</g>
<!-- 27&#45;&gt;25 -->
<g id="edge12" class="edge"><title>27&#45;&gt;25</title>
<path fill="none" stroke="black" d="M275,-399.689C275,-389.894 275,-377.422 275,-366.335"/>
<polygon fill="black" stroke="black" points="278.5,-366.262 275,-356.262 271.5,-366.262 278.5,-366.262"/>
<text text-anchor="middle" x="382.5" y="-376.7" font-family="Times,serif" font-size="6.00">*[[71, 69],[71, 69]],[[71, 101],[71, 101]],[[103, 69],[103, 69]],[[103, 101],[103, 101]]*</text>
</g>
</g>
</svg>
