<?xml version="1.0" encoding="UTF-8" standalone="no"?>
<!DOCTYPE svg PUBLIC "-//W3C//DTD SVG 1.1//EN"
 "http://www.w3.org/Graphics/SVG/1.1/DTD/svg11.dtd">
<!-- Generated by graphviz version 2.30.1 (20180420.1509)
 -->
<!-- Title: %3 Pages: 1 -->
<svg width="280pt" height="604pt"
 viewBox="0.00 0.00 280.00 604.00" xmlns="http://www.w3.org/2000/svg" xmlns:xlink="http://www.w3.org/1999/xlink">
<g id="graph0" class="graph" transform="scale(1 1) rotate(0) translate(4 600)">
<title>%3</title>
<polygon fill="white" stroke="white" points="-4,5 -4,-600 277,-600 277,5 -4,5"/>
<!-- 0 -->
<g id="node1" class="node"><title>0</title>
<ellipse fill="none" stroke="black" cx="33" cy="-578" rx="27" ry="18"/>
<text text-anchor="middle" x="33" y="-574.3" font-family="Times,serif" font-size="14.00">0</text>
</g>
<!-- 14 -->
<g id="node2" class="node"><title>14</title>
<ellipse fill="none" stroke="orange" cx="33" cy="-498" rx="27" ry="18"/>
<text text-anchor="middle" x="33" y="-494.3" font-family="Times,serif" font-size="14.00">14</text>
</g>
<!-- 0&#45;&gt;14 -->
<g id="edge1" class="edge"><title>0&#45;&gt;14</title>
<path fill="none" stroke="black" d="M33,-559.689C33,-549.894 33,-537.422 33,-526.335"/>
<polygon fill="black" stroke="black" points="36.5001,-526.262 33,-516.262 29.5001,-526.262 36.5001,-526.262"/>
<text text-anchor="middle" x="152.5" y="-536.7" font-family="Times,serif" font-size="6.00">*[[5, 4, 4, 1],[5, 4, 4, 1]],[[5, 4, 6, 1],[5, 4, 6, 1]],[[7, 4, 4, 1],[7, 4, 4, 1]],[[7, 4, 6, 1],[7, 4, 6, 1]]*</text>
</g>
<!-- 13 -->
<g id="node8" class="node"><title>13</title>
<ellipse fill="none" stroke="red" cx="33" cy="-418" rx="27" ry="18"/>
<text text-anchor="middle" x="33" y="-414.3" font-family="Times,serif" font-size="14.00">13</text>
</g>
<!-- 14&#45;&gt;13 -->
<g id="edge7" class="edge"><title>14&#45;&gt;13</title>
<path fill="none" stroke="black" d="M33,-479.689C33,-469.894 33,-457.422 33,-446.335"/>
<polygon fill="black" stroke="black" points="36.5001,-446.262 33,-436.262 29.5001,-446.262 36.5001,-446.262"/>
<text text-anchor="middle" x="152.5" y="-456.7" font-family="Times,serif" font-size="6.00">*[[5, 2, 4, 7],[5, 2, 4, 7]],[[5, 2, 6, 7],[5, 2, 6, 7]],[[7, 2, 4, 7],[7, 2, 4, 7]],[[7, 2, 6, 7],[7, 2, 6, 7]]*</text>
</g>
<!-- 8,22,2 -->
<g id="node3" class="node"><title>8,22,2</title>
<ellipse fill="none" stroke="blue" cx="33" cy="-18" rx="33.2209" ry="18"/>
<text text-anchor="middle" x="33" y="-14.3" font-family="Times,serif" font-size="14.00">8,22,2</text>
</g>
<!-- 9 -->
<g id="node4" class="node"><title>9</title>
<ellipse fill="none" stroke="red" cx="33" cy="-98" rx="27" ry="18"/>
<text text-anchor="middle" x="33" y="-94.3" font-family="Times,serif" font-size="14.00">9</text>
</g>
<!-- 9&#45;&gt;8,22,2 -->
<g id="edge2" class="edge"><title>9&#45;&gt;8,22,2</title>
<path fill="none" stroke="black" d="M33,-79.6893C33,-69.8938 33,-57.4218 33,-46.335"/>
<polygon fill="black" stroke="black" points="36.5001,-46.2623 33,-36.2623 29.5001,-46.2624 36.5001,-46.2623"/>
<text text-anchor="middle" x="106" y="-56.7" font-family="Times,serif" font-size="6.00">*[[2, 15, 0, 0],[2, 15, 15, 15]],[[5, 12, 0, 0],[5, 12, 15, 15]]*</text>
</g>
<!-- 10 -->
<g id="node5" class="node"><title>10</title>
<ellipse fill="none" stroke="red" cx="33" cy="-178" rx="27" ry="18"/>
<text text-anchor="middle" x="33" y="-174.3" font-family="Times,serif" font-size="14.00">10</text>
</g>
<!-- 10&#45;&gt;9 -->
<g id="edge3" class="edge"><title>10&#45;&gt;9</title>
<path fill="none" stroke="black" d="M33,-159.689C33,-149.894 33,-137.422 33,-126.335"/>
<polygon fill="black" stroke="black" points="36.5001,-126.262 33,-116.262 29.5001,-126.262 36.5001,-126.262"/>
<text text-anchor="middle" x="71" y="-136.7" font-family="Times,serif" font-size="6.00">*[[2, 14, 2, 14],[2, 14, 2, 14]]*</text>
</g>
<!-- 11 -->
<g id="node6" class="node"><title>11</title>
<ellipse fill="none" stroke="red" cx="33" cy="-258" rx="27" ry="18"/>
<text text-anchor="middle" x="33" y="-254.3" font-family="Times,serif" font-size="14.00">11</text>
</g>
<!-- 11&#45;&gt;10 -->
<g id="edge4" class="edge"><title>11&#45;&gt;10</title>
<path fill="none" stroke="black" d="M33,-239.689C33,-229.894 33,-217.422 33,-206.335"/>
<polygon fill="black" stroke="black" points="36.5001,-206.262 33,-196.262 29.5001,-206.262 36.5001,-206.262"/>
<text text-anchor="middle" x="106" y="-216.7" font-family="Times,serif" font-size="6.00">*[[2, 14, 2, 15],[2, 14, 2, 15]],[[2, 14, 5, 12],[2, 14, 5, 12]]*</text>
</g>
<!-- 12 -->
<g id="node7" class="node"><title>12</title>
<ellipse fill="none" stroke="red" cx="33" cy="-338" rx="27" ry="18"/>
<text text-anchor="middle" x="33" y="-334.3" font-family="Times,serif" font-size="14.00">12</text>
</g>
<!-- 12&#45;&gt;11 -->
<g id="edge5" class="edge"><title>12&#45;&gt;11</title>
<path fill="none" stroke="black" d="M33,-319.689C33,-309.894 33,-297.422 33,-286.335"/>
<polygon fill="black" stroke="black" points="36.5001,-286.262 33,-276.262 29.5001,-286.262 36.5001,-286.262"/>
<text text-anchor="middle" x="71" y="-296.7" font-family="Times,serif" font-size="6.00">*[[3, 13, 2, 14],[3, 13, 2, 14]]*</text>
</g>
<!-- 13&#45;&gt;12 -->
<g id="edge6" class="edge"><title>13&#45;&gt;12</title>
<path fill="none" stroke="black" d="M33,-399.689C33,-389.894 33,-377.422 33,-366.335"/>
<polygon fill="black" stroke="black" points="36.5001,-366.262 33,-356.262 29.5001,-366.262 36.5001,-366.262"/>
<text text-anchor="middle" x="152.5" y="-376.7" font-family="Times,serif" font-size="6.00">*[[4, 5, 5, 4],[4, 5, 5, 4]],[[4, 5, 7, 4],[4, 5, 7, 4]],[[6, 5, 5, 4],[6, 5, 5, 4]],[[6, 5, 7, 4],[6, 5, 7, 4]]*</text>
</g>
</g>
</svg>
