<?xml version="1.0" encoding="UTF-8" standalone="no"?>
<!DOCTYPE svg PUBLIC "-//W3C//DTD SVG 1.1//EN"
 "http://www.w3.org/Graphics/SVG/1.1/DTD/svg11.dtd">
<!-- Generated by graphviz version 2.30.1 (20180420.1509)
 -->
<!-- Title: %3 Pages: 1 -->
<svg width="2660pt" height="604pt"
 viewBox="0.00 0.00 2660.16 604.00" xmlns="http://www.w3.org/2000/svg" xmlns:xlink="http://www.w3.org/1999/xlink">
<g id="graph0" class="graph" transform="scale(1 1) rotate(0) translate(4 600)">
<title>%3</title>
<polygon fill="white" stroke="white" points="-4,5 -4,-600 2657.16,-600 2657.16,5 -4,5"/>
<!-- 0 -->
<g id="node1" class="node"><title>0</title>
<ellipse fill="none" stroke="black" cx="617.16" cy="-578" rx="27" ry="18"/>
<text text-anchor="middle" x="617.16" y="-574.3" font-family="Times,serif" font-size="14.00">0</text>
</g>
<!-- 27 -->
<g id="node2" class="node"><title>27</title>
<ellipse fill="none" stroke="orange" cx="713.16" cy="-498" rx="27" ry="18"/>
<text text-anchor="middle" x="713.16" y="-494.3" font-family="Times,serif" font-size="14.00">27</text>
</g>
<!-- 0&#45;&gt;27 -->
<g id="edge1" class="edge"><title>0&#45;&gt;27</title>
<path fill="none" stroke="black" d="M633.882,-563.413C649.024,-551.11 671.522,-532.831 688.687,-518.884"/>
<polygon fill="black" stroke="black" points="691.076,-521.453 696.63,-512.431 686.661,-516.02 691.076,-521.453"/>
<text text-anchor="middle" x="769.66" y="-536.7" font-family="Times,serif" font-size="6.00">*[[38, 85],[38, 85]],[[38, 117],[38, 117]],[[63, 85],[63, 85]],[[63, 117],[63, 117]]*</text>
</g>
<!-- 29 -->
<g id="node3" class="node"><title>29</title>
<ellipse fill="none" stroke="orange" cx="538.16" cy="-498" rx="27" ry="18"/>
<text text-anchor="middle" x="538.16" y="-494.3" font-family="Times,serif" font-size="14.00">29</text>
</g>
<!-- 0&#45;&gt;29 -->
<g id="edge2" class="edge"><title>0&#45;&gt;29</title>
<path fill="none" stroke="black" d="M595.787,-566.672C584.786,-560.599 571.716,-552.123 562.16,-542 557.461,-537.022 553.354,-530.953 549.928,-524.96"/>
<polygon fill="black" stroke="black" points="552.858,-523.011 545.118,-515.776 546.657,-526.259 552.858,-523.011"/>
<text text-anchor="middle" x="611.16" y="-536.7" font-family="Times,serif" font-size="6.00">*[[0, 38],[255, 38]],[[0, 63],[255, 63]]*</text>
</g>
<!-- 25 -->
<g id="node15" class="node"><title>25</title>
<ellipse fill="none" stroke="red" cx="749.16" cy="-418" rx="27" ry="18"/>
<text text-anchor="middle" x="749.16" y="-414.3" font-family="Times,serif" font-size="14.00">25</text>
</g>
<!-- 27&#45;&gt;25 -->
<g id="edge34" class="edge"><title>27&#45;&gt;25</title>
<path fill="none" stroke="black" d="M720.795,-480.458C725.568,-470.117 731.815,-456.58 737.232,-444.843"/>
<polygon fill="black" stroke="black" points="740.524,-446.064 741.536,-435.518 734.168,-443.131 740.524,-446.064"/>
<text text-anchor="middle" x="840.66" y="-456.7" font-family="Times,serif" font-size="6.00">*[[83, 69],[83, 69]],[[83, 101],[83, 101]],[[115, 69],[115, 69]],[[115, 101],[115, 101]]*</text>
</g>
<!-- 26 -->
<g id="node16" class="node"><title>26</title>
<ellipse fill="none" stroke="red" cx="462.16" cy="-418" rx="27" ry="18"/>
<text text-anchor="middle" x="462.16" y="-414.3" font-family="Times,serif" font-size="14.00">26</text>
</g>
<!-- 29&#45;&gt;26 -->
<g id="edge35" class="edge"><title>29&#45;&gt;26</title>
<path fill="none" stroke="black" d="M523.865,-482.329C512.507,-470.672 496.444,-454.186 483.554,-440.957"/>
<polygon fill="black" stroke="black" points="485.876,-438.325 476.391,-433.605 480.863,-443.21 485.876,-438.325"/>
<text text-anchor="middle" x="610.66" y="-456.7" font-family="Times,serif" font-size="6.00">*[[85, 83],[85, 83]],[[85, 115],[85, 115]],[[117, 83],[117, 83]],[[117, 115],[117, 115]]*</text>
</g>
<!-- 14,14,1 -->
<g id="node4" class="node"><title>14,14,1</title>
<ellipse fill="none" stroke="blue" cx="1241.16" cy="-18" rx="37.5442" ry="18"/>
<text text-anchor="middle" x="1241.16" y="-14.3" font-family="Times,serif" font-size="14.00">14,14,1</text>
</g>
<!-- 15,14,0 -->
<g id="node5" class="node"><title>15,14,0</title>
<ellipse fill="none" stroke="blue" cx="1181.16" cy="-98" rx="37.5442" ry="18"/>
<text text-anchor="middle" x="1181.16" y="-94.3" font-family="Times,serif" font-size="14.00">15,14,0</text>
</g>
<!-- 16,14,1 -->
<g id="node6" class="node"><title>16,14,1</title>
<ellipse fill="none" stroke="blue" cx="827.16" cy="-98" rx="37.5442" ry="18"/>
<text text-anchor="middle" x="827.16" y="-94.3" font-family="Times,serif" font-size="14.00">16,14,1</text>
</g>
<!-- 17,14,0 -->
<g id="node7" class="node"><title>17,14,0</title>
<ellipse fill="none" stroke="blue" cx="383.16" cy="-98" rx="37.5442" ry="18"/>
<text text-anchor="middle" x="383.16" y="-94.3" font-family="Times,serif" font-size="14.00">17,14,0</text>
</g>
<!-- 18,14,0 -->
<g id="node8" class="node"><title>18,14,0</title>
<ellipse fill="none" stroke="blue" cx="1696.16" cy="-98" rx="37.5442" ry="18"/>
<text text-anchor="middle" x="1696.16" y="-94.3" font-family="Times,serif" font-size="14.00">18,14,0</text>
</g>
<!-- 19 -->
<g id="node9" class="node"><title>19</title>
<ellipse fill="none" stroke="red" cx="249.16" cy="-98" rx="27" ry="18"/>
<text text-anchor="middle" x="249.16" y="-94.3" font-family="Times,serif" font-size="14.00">19</text>
</g>
<!-- 19&#45;&gt;14,14,1 -->
<g id="edge3" class="edge"><title>19&#45;&gt;14,14,1</title>
<path fill="none" stroke="black" d="M274.528,-91.1686C291.808,-87.4123 315.254,-82.7361 336.16,-80 662.256,-37.322 1058.6,-23.6801 1193.55,-20.1025"/>
<polygon fill="black" stroke="black" points="1194.02,-23.5914 1203.93,-19.8336 1193.84,-16.5938 1194.02,-23.5914"/>
<text text-anchor="middle" x="585.16" y="-56.7" font-family="Times,serif" font-size="6.00">*[[40, 0],[40, 255]]*</text>
</g>
<!-- 20 -->
<g id="node10" class="node"><title>20</title>
<ellipse fill="none" stroke="red" cx="1852.16" cy="-98" rx="27" ry="18"/>
<text text-anchor="middle" x="1852.16" y="-94.3" font-family="Times,serif" font-size="14.00">20</text>
</g>
<!-- 20&#45;&gt;14,14,1 -->
<g id="edge4" class="edge"><title>20&#45;&gt;14,14,1</title>
<path fill="none" stroke="black" d="M1825.97,-92.7096C1803.7,-89.1206 1770.87,-83.9657 1742.16,-80 1574.97,-56.9083 1375.73,-34.031 1287.33,-24.1189"/>
<polygon fill="black" stroke="black" points="1287.69,-20.6371 1277.36,-23.0033 1286.91,-27.5937 1287.69,-20.6371"/>
<text text-anchor="middle" x="1631.16" y="-56.7" font-family="Times,serif" font-size="6.00">*[[40, 0],[40, 255]]*</text>
</g>
<!-- 21 -->
<g id="node11" class="node"><title>21</title>
<ellipse fill="none" stroke="red" cx="699.16" cy="-258" rx="27" ry="18"/>
<text text-anchor="middle" x="699.16" y="-254.3" font-family="Times,serif" font-size="14.00">21</text>
</g>
<!-- 21&#45;&gt;15,14,0 -->
<g id="edge5" class="edge"><title>21&#45;&gt;15,14,0</title>
<path fill="none" stroke="black" d="M726.048,-255.178C818.944,-248.644 1122.42,-225.218 1154.16,-196 1173.39,-178.296 1179.37,-148.179 1181.01,-126.191"/>
<polygon fill="black" stroke="black" points="1184.51,-126.301 1181.51,-116.14 1177.52,-125.954 1184.51,-126.301"/>
<text text-anchor="middle" x="1201.16" y="-176.7" font-family="Times,serif" font-size="6.00">*[[36, 40],[36, 40]]*</text>
</g>
<!-- 21&#45;&gt;16,14,1 -->
<g id="edge6" class="edge"><title>21&#45;&gt;16,14,1</title>
<path fill="none" stroke="black" d="M672.966,-252.792C655.04,-248.402 632.533,-239.568 621.16,-222 599.676,-188.811 606.056,-161.807 634.16,-134 654.259,-114.113 729.492,-105.299 779.874,-101.561"/>
<polygon fill="black" stroke="black" points="780.176,-105.048 789.907,-100.858 779.687,-98.0654 780.176,-105.048"/>
<text text-anchor="middle" x="689.66" y="-176.7" font-family="Times,serif" font-size="6.00">*[[59, 0],[59, 255]],[[96, 0],[96, 255]],[[124, 0],[124, 255]]*</text>
</g>
<!-- 21&#45;&gt;17,14,0 -->
<g id="edge7" class="edge"><title>21&#45;&gt;17,14,0</title>
<path fill="none" stroke="black" d="M673.508,-251.65C614.454,-239.187 472.535,-208.343 454.16,-196 427.632,-178.181 407.437,-146.975 395.49,-124.771"/>
<polygon fill="black" stroke="black" points="398.588,-123.141 390.881,-115.872 392.372,-126.361 398.588,-123.141"/>
<text text-anchor="middle" x="529.66" y="-176.7" font-family="Times,serif" font-size="6.00">*[[61, 59],[61, 59]],[[61, 96],[61, 96]],[[61, 124],[61, 124]]*</text>
</g>
<!-- 21&#45;&gt;18,14,0 -->
<g id="edge8" class="edge"><title>21&#45;&gt;18,14,0</title>
<path fill="none" stroke="black" d="M725.971,-254.867C771.017,-251.345 864.757,-244.277 944.16,-240 996.234,-237.195 1366.67,-245.626 1413.16,-222 1444.47,-206.088 1431.2,-176.586 1462.16,-160 1505.4,-136.836 1643.68,-172.416 1682.16,-142 1687.13,-138.07 1690.36,-132.344 1692.45,-126.344"/>
<polygon fill="black" stroke="black" points="1695.94,-126.811 1695,-116.259 1689.16,-125.096 1695.94,-126.811"/>
<text text-anchor="middle" x="1683.16" y="-176.7" font-family="Times,serif" font-size="6.00">*[[0, 59],[37, 59]],[[0, 96],[37, 96]],[[0, 124],[37, 124]],[[39, 59],[60, 59]],[[39, 96],[60, 96]],[[39, 124],[60, 124]],[[62, 59],[255, 59]],[[62, 96],[255, 96]],[[62, 124],[255, 124]]*</text>
</g>
<!-- 21&#45;&gt;19 -->
<g id="edge9" class="edge"><title>21&#45;&gt;19</title>
<path fill="none" stroke="black" d="M672.923,-252.976C635.812,-247.111 565.954,-235.44 507.16,-222 494.126,-219.02 491.23,-216.816 478.16,-214 427.587,-203.104 410.181,-217.572 363.16,-196 324.918,-178.455 289.448,-144.302 268.541,-121.568"/>
<polygon fill="black" stroke="black" points="271.064,-119.139 261.773,-114.048 265.861,-123.822 271.064,-119.139"/>
<text text-anchor="middle" x="389.16" y="-176.7" font-family="Times,serif" font-size="6.00">*[[61, 36],[61, 36]]*</text>
</g>
<!-- 21&#45;&gt;20 -->
<g id="edge10" class="edge"><title>21&#45;&gt;20</title>
<path fill="none" stroke="black" d="M725.962,-254.694C770.996,-250.919 864.719,-243.492 944.16,-240 971.028,-238.819 1893.32,-241.193 1912.16,-222 1941.07,-192.552 1903.14,-146.451 1875.75,-119.844"/>
<polygon fill="black" stroke="black" points="1878.05,-117.2 1868.37,-112.887 1873.25,-122.293 1878.05,-117.2"/>
<text text-anchor="middle" x="1995.66" y="-176.7" font-family="Times,serif" font-size="6.00">*[[0, 36],[37, 36]],[[39, 36],[60, 36]],[[62, 36],[255, 36]]*</text>
</g>
<!-- 21&#45;&gt;21 -->
<g id="edge11" class="edge"><title>21&#45;&gt;21</title>
<path fill="none" stroke="black" d="M724.149,-265.41C734.93,-266.017 744.16,-263.547 744.16,-258 744.16,-254.36 740.185,-252.045 734.405,-251.055"/>
<polygon fill="black" stroke="black" points="734.297,-247.546 724.149,-250.59 733.98,-254.539 734.297,-247.546"/>
<text text-anchor="middle" x="793.16" y="-256.7" font-family="Times,serif" font-size="6.00">*[[61, 0],[61, 37]],[[61, 39],[61, 255]]*</text>
</g>
<!-- 22 -->
<g id="node12" class="node"><title>22</title>
<ellipse fill="none" stroke="red" cx="816.16" cy="-178" rx="27" ry="18"/>
<text text-anchor="middle" x="816.16" y="-174.3" font-family="Times,serif" font-size="14.00">22</text>
</g>
<!-- 21&#45;&gt;22 -->
<g id="edge12" class="edge"><title>21&#45;&gt;22</title>
<path fill="none" stroke="black" d="M673.599,-251.557C647.284,-244.829 612.21,-232.022 628.16,-214 649.971,-189.355 743.334,-204.38 775.16,-196 778.541,-195.11 782.012,-194.001 785.434,-192.779"/>
<polygon fill="black" stroke="black" points="786.784,-196.01 794.836,-189.124 784.247,-189.486 786.784,-196.01"/>
<text text-anchor="middle" x="770.16" y="-216.7" font-family="Times,serif" font-size="6.00">*[[0, 0],[37, 37]],[[0, 39],[37, 255]],[[39, 0],[60, 37]],[[39, 39],[60, 255]],[[62, 0],[255, 37]],[[62, 39],[255, 255]]*</text>
</g>
<!-- 22&#45;&gt;15,14,0 -->
<g id="edge13" class="edge"><title>22&#45;&gt;15,14,0</title>
<path fill="none" stroke="black" d="M841.536,-171.577C903.115,-158.418 1061.04,-124.67 1137.87,-108.25"/>
<polygon fill="black" stroke="black" points="1138.67,-111.66 1147.72,-106.147 1137.21,-104.814 1138.67,-111.66"/>
<text text-anchor="middle" x="1036.16" y="-136.7" font-family="Times,serif" font-size="6.00">*[[36, 40],[36, 40]]*</text>
</g>
<!-- 22&#45;&gt;16,14,1 -->
<g id="edge14" class="edge"><title>22&#45;&gt;16,14,1</title>
<path fill="none" stroke="black" d="M818.601,-159.689C819.992,-149.826 821.766,-137.248 823.338,-126.104"/>
<polygon fill="black" stroke="black" points="826.833,-126.385 824.763,-115.994 819.901,-125.407 826.833,-126.385"/>
<text text-anchor="middle" x="897.66" y="-136.7" font-family="Times,serif" font-size="6.00">*[[59, 0],[59, 255]],[[96, 0],[96, 255]],[[124, 0],[124, 255]]*</text>
</g>
<!-- 22&#45;&gt;17,14,0 -->
<g id="edge15" class="edge"><title>22&#45;&gt;17,14,0</title>
<path fill="none" stroke="black" d="M794.373,-166.836C788.261,-164.298 781.54,-161.791 775.16,-160 758.569,-155.342 528.267,-120.675 428.598,-105.774"/>
<polygon fill="black" stroke="black" points="428.93,-102.285 418.523,-104.269 427.896,-109.208 428.93,-102.285"/>
<text text-anchor="middle" x="736.66" y="-136.7" font-family="Times,serif" font-size="6.00">*[[61, 59],[61, 59]],[[61, 96],[61, 96]],[[61, 124],[61, 124]]*</text>
</g>
<!-- 22&#45;&gt;18,14,0 -->
<g id="edge16" class="edge"><title>22&#45;&gt;18,14,0</title>
<path fill="none" stroke="black" d="M842.926,-174.056C909.84,-166.746 1089.82,-147.391 1240.16,-134 1389.57,-120.692 1566.8,-107.965 1649.42,-102.209"/>
<polygon fill="black" stroke="black" points="1649.75,-105.694 1659.49,-101.509 1649.27,-98.7106 1649.75,-105.694"/>
<text text-anchor="middle" x="1461.16" y="-136.7" font-family="Times,serif" font-size="6.00">*[[0, 59],[37, 59]],[[0, 96],[37, 96]],[[0, 124],[37, 124]],[[39, 59],[60, 59]],[[39, 96],[60, 96]],[[39, 124],[60, 124]],[[62, 59],[255, 59]],[[62, 96],[255, 96]],[[62, 124],[255, 124]]*</text>
</g>
<!-- 22&#45;&gt;19 -->
<g id="edge17" class="edge"><title>22&#45;&gt;19</title>
<path fill="none" stroke="black" d="M794.876,-166.715C788.653,-164.111 781.749,-161.602 775.16,-160 682.414,-137.452 656.135,-151.479 561.16,-142 460.992,-132.002 435.634,-131.442 336.16,-116 319.069,-113.347 300.218,-109.747 284.445,-106.543"/>
<polygon fill="black" stroke="black" points="285.075,-103.099 274.574,-104.508 283.661,-109.955 285.075,-103.099"/>
<text text-anchor="middle" x="587.16" y="-136.7" font-family="Times,serif" font-size="6.00">*[[61, 36],[61, 36]]*</text>
</g>
<!-- 22&#45;&gt;20 -->
<g id="edge18" class="edge"><title>22&#45;&gt;20</title>
<path fill="none" stroke="black" d="M843.277,-175.514C901.241,-172.369 1041.51,-164.924 1159.16,-160 1276.24,-155.1 1570.19,-158.793 1686.16,-142 1733.02,-135.214 1785.73,-120.263 1818.93,-109.911"/>
<polygon fill="black" stroke="black" points="1820.1,-113.212 1828.58,-106.86 1817.99,-106.538 1820.1,-113.212"/>
<text text-anchor="middle" x="1800.66" y="-136.7" font-family="Times,serif" font-size="6.00">*[[0, 36],[37, 36]],[[39, 36],[60, 36]],[[62, 36],[255, 36]]*</text>
</g>
<!-- 22&#45;&gt;21 -->
<g id="edge19" class="edge"><title>22&#45;&gt;21</title>
<path fill="none" stroke="black" d="M842.733,-181.567C877.953,-185.987 933.318,-197.082 912.16,-222 890.057,-248.032 791.468,-254.738 736.501,-256.441"/>
<polygon fill="black" stroke="black" points="736.351,-252.943 726.449,-256.712 736.539,-259.941 736.351,-252.943"/>
<text text-anchor="middle" x="965.16" y="-216.7" font-family="Times,serif" font-size="6.00">*[[61, 0],[61, 37]],[[61, 39],[61, 255]]*</text>
</g>
<!-- 22&#45;&gt;22 -->
<g id="edge20" class="edge"><title>22&#45;&gt;22</title>
<path fill="none" stroke="black" d="M841.149,-185.41C851.93,-186.017 861.16,-183.547 861.16,-178 861.16,-174.36 857.185,-172.045 851.405,-171.055"/>
<polygon fill="black" stroke="black" points="851.297,-167.546 841.149,-170.59 850.98,-174.539 851.297,-167.546"/>
<text text-anchor="middle" x="1003.16" y="-176.7" font-family="Times,serif" font-size="6.00">*[[0, 0],[37, 37]],[[0, 39],[37, 255]],[[39, 0],[60, 37]],[[39, 39],[60, 255]],[[62, 0],[255, 37]],[[62, 39],[255, 255]]*</text>
</g>
<!-- 23 -->
<g id="node13" class="node"><title>23</title>
<ellipse fill="none" stroke="red" cx="949.16" cy="-338" rx="27" ry="18"/>
<text text-anchor="middle" x="949.16" y="-334.3" font-family="Times,serif" font-size="14.00">23</text>
</g>
<!-- 23&#45;&gt;15,14,0 -->
<g id="edge21" class="edge"><title>23&#45;&gt;15,14,0</title>
<path fill="none" stroke="black" d="M976.484,-337.295C1115.18,-338.161 1739.23,-334.25 1856.16,-196 1866.49,-183.784 1866.58,-172.139 1856.16,-160 1853.05,-156.376 1690.91,-134.527 1686.16,-134 1518.33,-115.382 1317.95,-104.995 1228.42,-100.971"/>
<polygon fill="black" stroke="black" points="1228.46,-97.47 1218.32,-100.523 1228.15,-104.463 1228.46,-97.47"/>
<text text-anchor="middle" x="1860.16" y="-216.7" font-family="Times,serif" font-size="6.00">*[[36, 40],[36, 40]]*</text>
</g>
<!-- 23&#45;&gt;16,14,1 -->
<g id="edge22" class="edge"><title>23&#45;&gt;16,14,1</title>
<path fill="none" stroke="black" d="M976.343,-335.666C1043.26,-331.758 1213.02,-317.835 1247.16,-276 1265.75,-253.214 1248.83,-176.957 1231.16,-160 1180.97,-111.83 970.517,-101.665 874.854,-99.5448"/>
<polygon fill="black" stroke="black" points="874.662,-96.0403 864.594,-99.3387 874.522,-103.039 874.662,-96.0403"/>
<text text-anchor="middle" x="1329.66" y="-216.7" font-family="Times,serif" font-size="6.00">*[[59, 0],[59, 255]],[[96, 0],[96, 255]],[[124, 0],[124, 255]]*</text>
</g>
<!-- 23&#45;&gt;17,14,0 -->
<g id="edge23" class="edge"><title>23&#45;&gt;17,14,0</title>
<path fill="none" stroke="black" d="M922.231,-335.152C836.703,-328.585 564.602,-302.294 356.16,-222 335.32,-213.972 324.13,-215.453 313.16,-196 305.301,-182.063 306.534,-174.563 313.16,-160 321.084,-142.583 336.71,-128.203 351.191,-117.788"/>
<polygon fill="black" stroke="black" points="353.221,-120.641 359.519,-112.121 349.282,-114.854 353.221,-120.641"/>
<text text-anchor="middle" x="431.66" y="-216.7" font-family="Times,serif" font-size="6.00">*[[61, 59],[61, 59]],[[61, 96],[61, 96]],[[61, 124],[61, 124]]*</text>
</g>
<!-- 23&#45;&gt;18,14,0 -->
<g id="edge24" class="edge"><title>23&#45;&gt;18,14,0</title>
<path fill="none" stroke="black" d="M976.435,-337.493C1079.84,-338.83 1457.14,-338.85 1759.16,-276 1899.73,-246.747 1984.09,-309.405 2072.16,-196 2081.97,-183.363 2082.53,-172.186 2072.16,-160 2066.81,-153.706 1840.49,-120.039 1741.61,-105.592"/>
<polygon fill="black" stroke="black" points="1742,-102.113 1731.6,-104.133 1740.99,-109.04 1742,-102.113"/>
<text text-anchor="middle" x="2277.16" y="-216.7" font-family="Times,serif" font-size="6.00">*[[0, 59],[37, 59]],[[0, 96],[37, 96]],[[0, 124],[37, 124]],[[39, 59],[60, 59]],[[39, 96],[60, 96]],[[39, 124],[60, 124]],[[62, 59],[255, 59]],[[62, 96],[255, 96]],[[62, 124],[255, 124]]*</text>
</g>
<!-- 23&#45;&gt;19 -->
<g id="edge25" class="edge"><title>23&#45;&gt;19</title>
<path fill="none" stroke="black" d="M921.95,-336.882C843.462,-336.181 610.073,-331.567 419.16,-302 272.156,-279.234 185.919,-339.084 94.16,-222 53.9799,-170.73 158.356,-127.93 215.191,-109.181"/>
<polygon fill="black" stroke="black" points="216.425,-112.461 224.873,-106.067 214.281,-105.797 216.425,-112.461"/>
<text text-anchor="middle" x="120.16" y="-216.7" font-family="Times,serif" font-size="6.00">*[[61, 36],[61, 36]]*</text>
</g>
<!-- 23&#45;&gt;20 -->
<g id="edge26" class="edge"><title>23&#45;&gt;20</title>
<path fill="none" stroke="black" d="M976.32,-337.174C1174.66,-338.172 2395.16,-339.496 2502.16,-222 2587.78,-127.985 2038.95,-104.585 1889.19,-99.9797"/>
<polygon fill="black" stroke="black" points="1889.21,-96.4788 1879.11,-99.6799 1889,-103.476 1889.21,-96.4788"/>
<text text-anchor="middle" x="2579.66" y="-216.7" font-family="Times,serif" font-size="6.00">*[[0, 36],[37, 36]],[[39, 36],[60, 36]],[[62, 36],[255, 36]]*</text>
</g>
<!-- 23&#45;&gt;21 -->
<g id="edge27" class="edge"><title>23&#45;&gt;21</title>
<path fill="none" stroke="black" d="M925.189,-329.521C880.39,-315.544 783.882,-285.433 732.668,-269.455"/>
<polygon fill="black" stroke="black" points="733.647,-266.094 723.058,-266.456 731.562,-272.776 733.647,-266.094"/>
<text text-anchor="middle" x="881.16" y="-296.7" font-family="Times,serif" font-size="6.00">*[[61, 0],[61, 37]],[[61, 39],[61, 255]]*</text>
</g>
<!-- 23&#45;&gt;22 -->
<g id="edge28" class="edge"><title>23&#45;&gt;22</title>
<path fill="none" stroke="black" d="M946.611,-319.759C944.483,-298.49 944.331,-262.404 963.16,-240 980.556,-219.301 1035.57,-234.687 1018.16,-214 997.523,-189.479 905.953,-182.137 853.464,-179.939"/>
<polygon fill="black" stroke="black" points="853.332,-176.432 843.208,-179.554 853.07,-183.427 853.332,-176.432"/>
<text text-anchor="middle" x="1105.16" y="-256.7" font-family="Times,serif" font-size="6.00">*[[0, 0],[37, 37]],[[0, 39],[37, 255]],[[39, 0],[60, 37]],[[39, 39],[60, 255]],[[62, 0],[255, 37]],[[62, 39],[255, 255]]*</text>
</g>
<!-- 24 -->
<g id="node14" class="node"><title>24</title>
<ellipse fill="none" stroke="red" cx="177.16" cy="-338" rx="27" ry="18"/>
<text text-anchor="middle" x="177.16" y="-334.3" font-family="Times,serif" font-size="14.00">24</text>
</g>
<!-- 24&#45;&gt;17,14,0 -->
<g id="edge29" class="edge"><title>24&#45;&gt;17,14,0</title>
<path fill="none" stroke="black" d="M167.61,-321.138C154.182,-296.582 133.449,-248.593 153.16,-214 191.341,-146.993 282.724,-118.053 338.122,-106.317"/>
<polygon fill="black" stroke="black" points="338.915,-109.727 348.026,-104.32 337.532,-102.865 338.915,-109.727"/>
<text text-anchor="middle" x="228.66" y="-216.7" font-family="Times,serif" font-size="6.00">*[[61, 59],[61, 59]],[[61, 96],[61, 96]],[[61, 124],[61, 124]]*</text>
</g>
<!-- 24&#45;&gt;19 -->
<g id="edge30" class="edge"><title>24&#45;&gt;19</title>
<path fill="none" stroke="black" d="M151.66,-331.809C97.9349,-319.425 -20.12,-283.84 3.15997,-214 17.2145,-171.836 25.4252,-157.482 63.16,-134 108.873,-105.554 172.269,-99.1834 211.983,-98.283"/>
<polygon fill="black" stroke="black" points="212.076,-101.782 222.033,-98.1608 211.991,-94.7827 212.076,-101.782"/>
<text text-anchor="middle" x="29.16" y="-216.7" font-family="Times,serif" font-size="6.00">*[[61, 36],[61, 36]]*</text>
</g>
<!-- 24&#45;&gt;21 -->
<g id="edge31" class="edge"><title>24&#45;&gt;21</title>
<path fill="none" stroke="black" d="M203.404,-333.079C289.477,-320.217 563.366,-279.291 662.717,-264.446"/>
<polygon fill="black" stroke="black" points="663.491,-267.869 672.864,-262.929 662.456,-260.946 663.491,-267.869"/>
<text text-anchor="middle" x="503.16" y="-296.7" font-family="Times,serif" font-size="6.00">*[[61, 0],[61, 37]],[[61, 39],[61, 255]]*</text>
</g>
<!-- 25&#45;&gt;23 -->
<g id="edge32" class="edge"><title>25&#45;&gt;23</title>
<path fill="none" stroke="black" d="M772.103,-408.052C807.743,-394.153 876.519,-367.33 917.066,-351.517"/>
<polygon fill="black" stroke="black" points="918.44,-354.738 926.485,-347.843 915.897,-348.216 918.44,-354.738"/>
<text text-anchor="middle" x="907.16" y="-376.7" font-family="Times,serif" font-size="6.00">*[[82, 61],[82, 61]],[[114, 61],[114, 61]]*</text>
</g>
<!-- 26&#45;&gt;24 -->
<g id="edge33" class="edge"><title>26&#45;&gt;24</title>
<path fill="none" stroke="black" d="M437.367,-410.214C386.392,-396.263 269.736,-364.337 211.52,-348.404"/>
<polygon fill="black" stroke="black" points="212.262,-344.978 201.693,-345.714 210.414,-351.73 212.262,-344.978"/>
<text text-anchor="middle" x="436.66" y="-376.7" font-family="Times,serif" font-size="6.00">*[[69, 82],[69, 82]],[[69, 114],[69, 114]],[[101, 82],[101, 82]],[[101, 114],[101, 114]]*</text>
</g>
</g>
</svg>
