<?xml version="1.0" encoding="UTF-8" standalone="no"?>
<!DOCTYPE svg PUBLIC "-//W3C//DTD SVG 1.1//EN"
 "http://www.w3.org/Graphics/SVG/1.1/DTD/svg11.dtd">
<!-- Generated by graphviz version 2.30.1 (20180420.1509)
 -->
<!-- Title: %3 Pages: 1 -->
<svg width="2693pt" height="820pt"
 viewBox="0.00 0.00 2693.25 820.00" xmlns="http://www.w3.org/2000/svg" xmlns:xlink="http://www.w3.org/1999/xlink">
<g id="graph0" class="graph" transform="scale(1 1) rotate(0) translate(4 816)">
<title>%3</title>
<polygon fill="white" stroke="white" points="-4,5 -4,-816 2690.25,-816 2690.25,5 -4,5"/>
<!-- 0 -->
<g id="node1" class="node"><title>0</title>
<ellipse fill="none" stroke="black" cx="520.249" cy="-794" rx="27" ry="18"/>
<text text-anchor="middle" x="520.249" y="-790.3" font-family="Times,serif" font-size="14.00">0</text>
</g>
<!-- 27 -->
<g id="node2" class="node"><title>27</title>
<ellipse fill="none" stroke="green" cx="880.249" cy="-660" rx="27" ry="18"/>
<text text-anchor="middle" x="880.249" y="-656.3" font-family="Times,serif" font-size="14.00">27</text>
</g>
<!-- 0&#45;&gt;27 -->
<g id="edge1" class="edge"><title>0&#45;&gt;27</title>
<path fill="none" stroke="black" d="M543.316,-784.542C605.27,-761.825 775.458,-699.423 847.426,-673.035"/>
<polygon fill="black" stroke="black" points="848.724,-676.287 856.908,-669.558 846.314,-669.715 848.724,-676.287"/>
<text text-anchor="middle" x="734.749" y="-752.7" font-family="Times,serif" font-size="6.00">*[[38, 85],[38, 85]],[[38, 117],[38, 117]],[[63, 85],[63, 85]],[[63, 117],[63, 117]]*</text>
</g>
<!-- 29 -->
<g id="node3" class="node"><title>29</title>
<ellipse fill="none" stroke="green" cx="191.249" cy="-552" rx="27" ry="18"/>
<text text-anchor="middle" x="191.249" y="-548.3" font-family="Times,serif" font-size="14.00">29</text>
</g>
<!-- 0&#45;&gt;29 -->
<g id="edge2" class="edge"><title>0&#45;&gt;29</title>
<path fill="none" stroke="black" d="M496.818,-784.917C469.127,-774.795 422.266,-755.851 386.249,-732 315.185,-684.94 244.737,-612.112 211.314,-575.557"/>
<polygon fill="black" stroke="black" points="213.692,-572.968 204.381,-567.912 208.506,-577.671 213.692,-572.968"/>
<text text-anchor="middle" x="435.249" y="-712.7" font-family="Times,serif" font-size="6.00">*[[0, 38],[255, 38]],[[0, 63],[255, 63]]*</text>
</g>
<!-- 31 -->
<g id="node4" class="node"><title>31</title>
<ellipse fill="none" stroke="green" cx="520.249" cy="-714" rx="27" ry="18"/>
<text text-anchor="middle" x="520.249" y="-710.3" font-family="Times,serif" font-size="14.00">31</text>
</g>
<!-- 0&#45;&gt;31 -->
<g id="edge3" class="edge"><title>0&#45;&gt;31</title>
<path fill="none" stroke="black" d="M520.249,-775.689C520.249,-765.894 520.249,-753.422 520.249,-742.335"/>
<polygon fill="black" stroke="black" points="523.749,-742.262 520.249,-732.262 516.749,-742.262 523.749,-742.262"/>
<text text-anchor="middle" x="546.249" y="-752.7" font-family="Times,serif" font-size="6.00">*[[0, 0],[255, 255]]*</text>
</g>
<!-- 25 -->
<g id="node16" class="node"><title>25</title>
<ellipse fill="none" stroke="red" cx="975.249" cy="-418" rx="27" ry="18"/>
<text text-anchor="middle" x="975.249" y="-414.3" font-family="Times,serif" font-size="14.00">25</text>
</g>
<!-- 27&#45;&gt;25 -->
<g id="edge35" class="edge"><title>27&#45;&gt;25</title>
<path fill="none" stroke="black" d="M899.84,-647.592C908.518,-641.604 918.126,-633.524 924.249,-624 960.386,-567.785 970.918,-487.736 973.987,-446.262"/>
<polygon fill="black" stroke="black" points="977.491,-446.317 974.644,-436.112 970.505,-445.865 977.491,-446.317"/>
<text text-anchor="middle" x="1067.75" y="-550.7" font-family="Times,serif" font-size="6.00">*[[83, 69],[83, 69]],[[83, 101],[83, 101]],[[115, 69],[115, 69]],[[115, 101],[115, 101]]*</text>
</g>
<!-- 26 -->
<g id="node17" class="node"><title>26</title>
<ellipse fill="none" stroke="red" cx="145.249" cy="-418" rx="27" ry="18"/>
<text text-anchor="middle" x="145.249" y="-414.3" font-family="Times,serif" font-size="14.00">26</text>
</g>
<!-- 29&#45;&gt;26 -->
<g id="edge37" class="edge"><title>29&#45;&gt;26</title>
<path fill="none" stroke="black" d="M173.025,-538.367C165.934,-532.438 158.504,-524.746 154.249,-516 143.649,-494.214 142.094,-466.436 142.78,-446.194"/>
<polygon fill="black" stroke="black" points="146.281,-446.264 143.328,-436.089 139.292,-445.885 146.281,-446.264"/>
<text text-anchor="middle" x="261.749" y="-496.7" font-family="Times,serif" font-size="6.00">*[[85, 83],[85, 83]],[[85, 115],[85, 115]],[[117, 83],[117, 83]],[[117, 115],[117, 115]]*</text>
</g>
<!-- 32 -->
<g id="node20" class="node"><title>32</title>
<ellipse fill="none" stroke="red" cx="520.249" cy="-606" rx="27" ry="18"/>
<text text-anchor="middle" x="520.249" y="-602.3" font-family="Times,serif" font-size="14.00">32</text>
</g>
<!-- 31&#45;&gt;32 -->
<g id="edge39" class="edge"><title>31&#45;&gt;32</title>
<path fill="none" stroke="black" d="M520.249,-695.969C520.249,-679.378 520.249,-653.883 520.249,-634.431"/>
<polygon fill="black" stroke="black" points="523.749,-634.341 520.249,-624.341 516.749,-634.341 523.749,-634.341"/>
<text text-anchor="middle" x="546.249" y="-658.7" font-family="Times,serif" font-size="6.00">*[[0, 0],[255, 255]]*</text>
</g>
<!-- 28 -->
<g id="node18" class="node"><title>28</title>
<ellipse fill="none" stroke="red" cx="744.249" cy="-498" rx="27" ry="18"/>
<text text-anchor="middle" x="744.249" y="-494.3" font-family="Times,serif" font-size="14.00">28</text>
</g>
<!-- 31&#45;&gt;28 -->
<g id="edge40" class="edge"><title>31&#45;&gt;28</title>
<path fill="none" stroke="black" d="M543.363,-704.383C587.539,-686.628 683.694,-641.535 730.249,-570 738.659,-557.078 742.223,-540.229 743.655,-526.188"/>
<polygon fill="black" stroke="black" points="747.153,-526.334 744.379,-516.109 740.171,-525.833 747.153,-526.334"/>
<text text-anchor="middle" x="818.749" y="-604.7" font-family="Times,serif" font-size="6.00">*[[38, 85],[38, 85]],[[38, 117],[38, 117]],[[63, 85],[63, 85]],[[63, 117],[63, 117]]*</text>
</g>
<!-- 30 -->
<g id="node19" class="node"><title>30</title>
<ellipse fill="none" stroke="red" cx="405.249" cy="-498" rx="27" ry="18"/>
<text text-anchor="middle" x="405.249" y="-494.3" font-family="Times,serif" font-size="14.00">30</text>
</g>
<!-- 31&#45;&gt;30 -->
<g id="edge41" class="edge"><title>31&#45;&gt;30</title>
<path fill="none" stroke="black" d="M496.517,-705.25C464.726,-693.432 409.611,-667.563 386.249,-624 369.507,-592.781 381.424,-551.248 392.52,-524.81"/>
<polygon fill="black" stroke="black" points="395.808,-526.03 396.671,-515.47 389.411,-523.187 395.808,-526.03"/>
<text text-anchor="middle" x="435.249" y="-604.7" font-family="Times,serif" font-size="6.00">*[[0, 38],[255, 38]],[[0, 63],[255, 63]]*</text>
</g>
<!-- 14,14,1 -->
<g id="node5" class="node"><title>14,14,1</title>
<ellipse fill="none" stroke="blue" cx="1226.25" cy="-18" rx="37.5442" ry="18"/>
<text text-anchor="middle" x="1226.25" y="-14.3" font-family="Times,serif" font-size="14.00">14,14,1</text>
</g>
<!-- 15,14,0 -->
<g id="node6" class="node"><title>15,14,0</title>
<ellipse fill="none" stroke="blue" cx="1207.25" cy="-98" rx="37.5442" ry="18"/>
<text text-anchor="middle" x="1207.25" y="-94.3" font-family="Times,serif" font-size="14.00">15,14,0</text>
</g>
<!-- 16,14,1 -->
<g id="node7" class="node"><title>16,14,1</title>
<ellipse fill="none" stroke="blue" cx="853.249" cy="-98" rx="37.5442" ry="18"/>
<text text-anchor="middle" x="853.249" y="-94.3" font-family="Times,serif" font-size="14.00">16,14,1</text>
</g>
<!-- 17,14,0 -->
<g id="node8" class="node"><title>17,14,0</title>
<ellipse fill="none" stroke="blue" cx="409.249" cy="-98" rx="37.5442" ry="18"/>
<text text-anchor="middle" x="409.249" y="-94.3" font-family="Times,serif" font-size="14.00">17,14,0</text>
</g>
<!-- 18,14,0 -->
<g id="node9" class="node"><title>18,14,0</title>
<ellipse fill="none" stroke="blue" cx="1722.25" cy="-98" rx="37.5442" ry="18"/>
<text text-anchor="middle" x="1722.25" y="-94.3" font-family="Times,serif" font-size="14.00">18,14,0</text>
</g>
<!-- 19 -->
<g id="node10" class="node"><title>19</title>
<ellipse fill="none" stroke="red" cx="275.249" cy="-98" rx="27" ry="18"/>
<text text-anchor="middle" x="275.249" y="-94.3" font-family="Times,serif" font-size="14.00">19</text>
</g>
<!-- 19&#45;&gt;14,14,1 -->
<g id="edge4" class="edge"><title>19&#45;&gt;14,14,1</title>
<path fill="none" stroke="black" d="M300.619,-91.1902C317.901,-87.4433 341.347,-82.7693 362.249,-80 672.123,-38.9432 1048.43,-24.3428 1178.97,-20.304"/>
<polygon fill="black" stroke="black" points="1179.14,-23.8006 1189.03,-19.9988 1178.93,-16.8038 1179.14,-23.8006"/>
<text text-anchor="middle" x="625.249" y="-56.7" font-family="Times,serif" font-size="6.00">*[[40, 0],[40, 255]]*</text>
</g>
<!-- 20 -->
<g id="node11" class="node"><title>20</title>
<ellipse fill="none" stroke="red" cx="1812.25" cy="-98" rx="27" ry="18"/>
<text text-anchor="middle" x="1812.25" y="-94.3" font-family="Times,serif" font-size="14.00">20</text>
</g>
<!-- 20&#45;&gt;14,14,1 -->
<g id="edge5" class="edge"><title>20&#45;&gt;14,14,1</title>
<path fill="none" stroke="black" d="M1790.22,-87.217C1783.31,-84.4937 1775.57,-81.7937 1768.25,-80 1589.18,-36.107 1368.98,-23.695 1273.79,-20.2676"/>
<polygon fill="black" stroke="black" points="1273.74,-16.7637 1263.62,-19.9188 1273.5,-23.7596 1273.74,-16.7637"/>
<text text-anchor="middle" x="1707.25" y="-56.7" font-family="Times,serif" font-size="6.00">*[[40, 0],[40, 255]]*</text>
</g>
<!-- 21 -->
<g id="node12" class="node"><title>21</title>
<ellipse fill="none" stroke="red" cx="738.249" cy="-258" rx="27" ry="18"/>
<text text-anchor="middle" x="738.249" y="-254.3" font-family="Times,serif" font-size="14.00">21</text>
</g>
<!-- 21&#45;&gt;15,14,0 -->
<g id="edge6" class="edge"><title>21&#45;&gt;15,14,0</title>
<path fill="none" stroke="black" d="M764.965,-255.039C855.835,-248.137 1149.06,-223.871 1180.25,-196 1199.74,-178.584 1205.67,-148.419 1207.24,-126.341"/>
<polygon fill="black" stroke="black" points="1210.74,-126.391 1207.69,-116.243 1203.75,-126.075 1210.74,-126.391"/>
<text text-anchor="middle" x="1227.25" y="-176.7" font-family="Times,serif" font-size="6.00">*[[36, 40],[36, 40]]*</text>
</g>
<!-- 21&#45;&gt;16,14,1 -->
<g id="edge7" class="edge"><title>21&#45;&gt;16,14,1</title>
<path fill="none" stroke="black" d="M711.094,-257.55C683.225,-256.469 641.084,-249.912 620.249,-222 614.951,-214.902 614.746,-168.111 660.249,-134 682.762,-117.124 756.626,-107.451 806.168,-102.714"/>
<polygon fill="black" stroke="black" points="806.706,-106.18 816.343,-101.778 806.065,-99.2092 806.706,-106.18"/>
<text text-anchor="middle" x="710.749" y="-176.7" font-family="Times,serif" font-size="6.00">*[[59, 0],[59, 255]],[[96, 0],[96, 255]],[[124, 0],[124, 255]]*</text>
</g>
<!-- 21&#45;&gt;17,14,0 -->
<g id="edge8" class="edge"><title>21&#45;&gt;17,14,0</title>
<path fill="none" stroke="black" d="M711.76,-253.821C651.174,-246.125 504.683,-224.965 465.249,-196 441.466,-178.531 426.201,-147.686 417.712,-125.462"/>
<polygon fill="black" stroke="black" points="420.964,-124.16 414.283,-115.937 414.378,-126.532 420.964,-124.16"/>
<text text-anchor="middle" x="540.749" y="-176.7" font-family="Times,serif" font-size="6.00">*[[61, 59],[61, 59]],[[61, 96],[61, 96]],[[61, 124],[61, 124]]*</text>
</g>
<!-- 21&#45;&gt;18,14,0 -->
<g id="edge9" class="edge"><title>21&#45;&gt;18,14,0</title>
<path fill="none" stroke="black" d="M764.901,-254.767C808.313,-251.198 897.011,-244.182 972.249,-240 1024.1,-237.118 1392.51,-244.634 1439.25,-222 1471.88,-206.199 1459.98,-176.525 1492.25,-160 1535.12,-138.044 1670.48,-171.895 1708.25,-142 1713.22,-138.067 1716.45,-132.339 1718.53,-126.339"/>
<polygon fill="black" stroke="black" points="1722.03,-126.807 1721.09,-116.254 1715.24,-125.091 1722.03,-126.807"/>
<text text-anchor="middle" x="1713.25" y="-176.7" font-family="Times,serif" font-size="6.00">*[[0, 59],[37, 59]],[[0, 96],[37, 96]],[[0, 124],[37, 124]],[[39, 59],[60, 59]],[[39, 96],[60, 96]],[[39, 124],[60, 124]],[[62, 59],[255, 59]],[[62, 96],[255, 96]],[[62, 124],[255, 124]]*</text>
</g>
<!-- 21&#45;&gt;19 -->
<g id="edge10" class="edge"><title>21&#45;&gt;19</title>
<path fill="none" stroke="black" d="M711.604,-254.11C668.253,-249.156 579.887,-238.005 506.249,-222 493.602,-219.251 490.853,-216.939 478.249,-214 434.696,-203.845 419.217,-216.063 379.249,-196 343.874,-178.243 312.02,-144.687 293.15,-122.083"/>
<polygon fill="black" stroke="black" points="295.835,-119.837 286.803,-114.3 290.411,-124.261 295.835,-119.837"/>
<text text-anchor="middle" x="405.249" y="-176.7" font-family="Times,serif" font-size="6.00">*[[61, 36],[61, 36]]*</text>
</g>
<!-- 21&#45;&gt;20 -->
<g id="edge11" class="edge"><title>21&#45;&gt;20</title>
<path fill="none" stroke="black" d="M764.892,-254.594C808.292,-250.781 896.973,-243.43 972.249,-240 999.17,-238.773 1923.37,-241.232 1942.25,-222 1952.91,-211.143 1995.78,-248.741 1934.25,-160 1914.12,-130.97 1876.02,-115.059 1847.73,-106.836"/>
<polygon fill="black" stroke="black" points="1848.37,-103.383 1837.81,-104.144 1846.54,-110.139 1848.37,-103.383"/>
<text text-anchor="middle" x="2029.75" y="-176.7" font-family="Times,serif" font-size="6.00">*[[0, 36],[37, 36]],[[39, 36],[60, 36]],[[62, 36],[255, 36]]*</text>
</g>
<!-- 21&#45;&gt;21 -->
<g id="edge12" class="edge"><title>21&#45;&gt;21</title>
<path fill="none" stroke="black" d="M763.238,-265.41C774.019,-266.017 783.249,-263.547 783.249,-258 783.249,-254.36 779.274,-252.045 773.494,-251.055"/>
<polygon fill="black" stroke="black" points="773.386,-247.546 763.238,-250.59 773.069,-254.539 773.386,-247.546"/>
<text text-anchor="middle" x="832.249" y="-256.7" font-family="Times,serif" font-size="6.00">*[[61, 0],[61, 37]],[[61, 39],[61, 255]]*</text>
</g>
<!-- 22 -->
<g id="node13" class="node"><title>22</title>
<ellipse fill="none" stroke="red" cx="842.249" cy="-178" rx="27" ry="18"/>
<text text-anchor="middle" x="842.249" y="-174.3" font-family="Times,serif" font-size="14.00">22</text>
</g>
<!-- 21&#45;&gt;22 -->
<g id="edge13" class="edge"><title>21&#45;&gt;22</title>
<path fill="none" stroke="black" d="M711.372,-255.387C671.236,-252.032 602.92,-242.101 628.249,-214 654.127,-185.29 763.783,-205.501 801.249,-196 804.638,-195.141 808.114,-194.052 811.539,-192.842"/>
<polygon fill="black" stroke="black" points="812.882,-196.075 820.944,-189.201 810.355,-189.547 812.882,-196.075"/>
<text text-anchor="middle" x="770.249" y="-216.7" font-family="Times,serif" font-size="6.00">*[[0, 0],[37, 37]],[[0, 39],[37, 255]],[[39, 0],[60, 37]],[[39, 39],[60, 255]],[[62, 0],[255, 37]],[[62, 39],[255, 255]]*</text>
</g>
<!-- 22&#45;&gt;15,14,0 -->
<g id="edge14" class="edge"><title>22&#45;&gt;15,14,0</title>
<path fill="none" stroke="black" d="M867.625,-171.577C929.204,-158.418 1087.13,-124.67 1163.96,-108.25"/>
<polygon fill="black" stroke="black" points="1164.76,-111.66 1173.8,-106.147 1163.29,-104.814 1164.76,-111.66"/>
<text text-anchor="middle" x="1062.25" y="-136.7" font-family="Times,serif" font-size="6.00">*[[36, 40],[36, 40]]*</text>
</g>
<!-- 22&#45;&gt;16,14,1 -->
<g id="edge15" class="edge"><title>22&#45;&gt;16,14,1</title>
<path fill="none" stroke="black" d="M844.69,-159.689C846.081,-149.826 847.855,-137.248 849.426,-126.104"/>
<polygon fill="black" stroke="black" points="852.921,-126.385 850.852,-115.994 845.99,-125.407 852.921,-126.385"/>
<text text-anchor="middle" x="923.749" y="-136.7" font-family="Times,serif" font-size="6.00">*[[59, 0],[59, 255]],[[96, 0],[96, 255]],[[124, 0],[124, 255]]*</text>
</g>
<!-- 22&#45;&gt;17,14,0 -->
<g id="edge16" class="edge"><title>22&#45;&gt;17,14,0</title>
<path fill="none" stroke="black" d="M820.462,-166.836C814.35,-164.298 807.629,-161.791 801.249,-160 784.657,-155.342 554.356,-120.675 454.687,-105.774"/>
<polygon fill="black" stroke="black" points="455.019,-102.285 444.612,-104.269 453.985,-109.208 455.019,-102.285"/>
<text text-anchor="middle" x="762.749" y="-136.7" font-family="Times,serif" font-size="6.00">*[[61, 59],[61, 59]],[[61, 96],[61, 96]],[[61, 124],[61, 124]]*</text>
</g>
<!-- 22&#45;&gt;18,14,0 -->
<g id="edge17" class="edge"><title>22&#45;&gt;18,14,0</title>
<path fill="none" stroke="black" d="M869.015,-174.056C935.928,-166.746 1115.91,-147.391 1266.25,-134 1415.66,-120.692 1592.89,-107.965 1675.5,-102.209"/>
<polygon fill="black" stroke="black" points="1675.84,-105.694 1685.58,-101.509 1675.36,-98.7106 1675.84,-105.694"/>
<text text-anchor="middle" x="1487.25" y="-136.7" font-family="Times,serif" font-size="6.00">*[[0, 59],[37, 59]],[[0, 96],[37, 96]],[[0, 124],[37, 124]],[[39, 59],[60, 59]],[[39, 96],[60, 96]],[[39, 124],[60, 124]],[[62, 59],[255, 59]],[[62, 96],[255, 96]],[[62, 124],[255, 124]]*</text>
</g>
<!-- 22&#45;&gt;19 -->
<g id="edge18" class="edge"><title>22&#45;&gt;19</title>
<path fill="none" stroke="black" d="M820.965,-166.715C814.742,-164.111 807.838,-161.602 801.249,-160 708.503,-137.452 682.224,-151.479 587.249,-142 487.081,-132.002 461.723,-131.442 362.249,-116 345.158,-113.347 326.306,-109.747 310.534,-106.543"/>
<polygon fill="black" stroke="black" points="311.163,-103.099 300.663,-104.508 309.75,-109.955 311.163,-103.099"/>
<text text-anchor="middle" x="613.249" y="-136.7" font-family="Times,serif" font-size="6.00">*[[61, 36],[61, 36]]*</text>
</g>
<!-- 22&#45;&gt;20 -->
<g id="edge19" class="edge"><title>22&#45;&gt;20</title>
<path fill="none" stroke="black" d="M869.366,-175.514C927.33,-172.369 1067.6,-164.924 1185.25,-160 1302.33,-155.1 1597.9,-167.586 1712.25,-142 1737.29,-136.397 1763.9,-124.641 1783.37,-114.835"/>
<polygon fill="black" stroke="black" points="1785.04,-117.913 1792.32,-110.214 1781.82,-111.694 1785.04,-117.913"/>
<text text-anchor="middle" x="1810.75" y="-136.7" font-family="Times,serif" font-size="6.00">*[[0, 36],[37, 36]],[[39, 36],[60, 36]],[[62, 36],[255, 36]]*</text>
</g>
<!-- 22&#45;&gt;21 -->
<g id="edge20" class="edge"><title>22&#45;&gt;21</title>
<path fill="none" stroke="black" d="M867.683,-184.415C893.363,-191.04 927.249,-203.682 912.249,-222 895.269,-242.735 821.027,-251.451 775.181,-254.909"/>
<polygon fill="black" stroke="black" points="774.754,-251.43 765.025,-255.624 775.246,-258.413 774.754,-251.43"/>
<text text-anchor="middle" x="965.249" y="-216.7" font-family="Times,serif" font-size="6.00">*[[61, 0],[61, 37]],[[61, 39],[61, 255]]*</text>
</g>
<!-- 22&#45;&gt;22 -->
<g id="edge21" class="edge"><title>22&#45;&gt;22</title>
<path fill="none" stroke="black" d="M867.238,-185.41C878.019,-186.017 887.249,-183.547 887.249,-178 887.249,-174.36 883.274,-172.045 877.494,-171.055"/>
<polygon fill="black" stroke="black" points="877.386,-167.546 867.238,-170.59 877.069,-174.539 877.386,-167.546"/>
<text text-anchor="middle" x="1029.25" y="-176.7" font-family="Times,serif" font-size="6.00">*[[0, 0],[37, 37]],[[0, 39],[37, 255]],[[39, 0],[60, 37]],[[39, 39],[60, 255]],[[62, 0],[255, 37]],[[62, 39],[255, 255]]*</text>
</g>
<!-- 23 -->
<g id="node14" class="node"><title>23</title>
<ellipse fill="none" stroke="red" cx="975.249" cy="-338" rx="27" ry="18"/>
<text text-anchor="middle" x="975.249" y="-334.3" font-family="Times,serif" font-size="14.00">23</text>
</g>
<!-- 23&#45;&gt;15,14,0 -->
<g id="edge22" class="edge"><title>23&#45;&gt;15,14,0</title>
<path fill="none" stroke="black" d="M1002.23,-337.312C1140.61,-338.288 1768.61,-334.937 1886.25,-196 1896.59,-183.789 1896.69,-172.121 1886.25,-160 1883.06,-156.298 1717.11,-134.53 1712.25,-134 1544.38,-115.67 1344.02,-105.139 1254.5,-101.025"/>
<polygon fill="black" stroke="black" points="1254.55,-97.5239 1244.4,-100.567 1254.23,-104.517 1254.55,-97.5239"/>
<text text-anchor="middle" x="1890.25" y="-216.7" font-family="Times,serif" font-size="6.00">*[[36, 40],[36, 40]]*</text>
</g>
<!-- 23&#45;&gt;16,14,1 -->
<g id="edge23" class="edge"><title>23&#45;&gt;16,14,1</title>
<path fill="none" stroke="black" d="M1002.43,-335.666C1069.35,-331.758 1239.11,-317.835 1273.25,-276 1291.84,-253.214 1274.92,-176.957 1257.25,-160 1207.06,-111.83 996.606,-101.665 900.943,-99.5448"/>
<polygon fill="black" stroke="black" points="900.751,-96.0403 890.683,-99.3387 900.61,-103.039 900.751,-96.0403"/>
<text text-anchor="middle" x="1355.75" y="-216.7" font-family="Times,serif" font-size="6.00">*[[59, 0],[59, 255]],[[96, 0],[96, 255]],[[124, 0],[124, 255]]*</text>
</g>
<!-- 23&#45;&gt;17,14,0 -->
<g id="edge24" class="edge"><title>23&#45;&gt;17,14,0</title>
<path fill="none" stroke="black" d="M948.476,-335.301C841.682,-328.048 447.278,-296.577 351.249,-222 329.082,-204.785 327.625,-185.547 339.249,-160 347.173,-142.583 362.799,-128.203 377.28,-117.788"/>
<polygon fill="black" stroke="black" points="379.31,-120.641 385.608,-112.121 375.371,-114.854 379.31,-120.641"/>
<text text-anchor="middle" x="426.749" y="-216.7" font-family="Times,serif" font-size="6.00">*[[61, 59],[61, 59]],[[61, 96],[61, 96]],[[61, 124],[61, 124]]*</text>
</g>
<!-- 23&#45;&gt;18,14,0 -->
<g id="edge25" class="edge"><title>23&#45;&gt;18,14,0</title>
<path fill="none" stroke="black" d="M1002.26,-337.467C1105.52,-338.731 1484.65,-338.58 1788.25,-276 1930.99,-246.578 2016.65,-310.937 2106.25,-196 2116.09,-183.381 2116.79,-172.038 2106.25,-160 2057.51,-104.337 1848.47,-132.056 1776.25,-116 1771.46,-114.936 1766.49,-113.642 1761.59,-112.246"/>
<polygon fill="black" stroke="black" points="1762.29,-108.803 1751.71,-109.284 1760.28,-115.508 1762.29,-108.803"/>
<text text-anchor="middle" x="2311.25" y="-216.7" font-family="Times,serif" font-size="6.00">*[[0, 59],[37, 59]],[[0, 96],[37, 96]],[[0, 124],[37, 124]],[[39, 59],[60, 59]],[[39, 96],[60, 96]],[[39, 124],[60, 124]],[[62, 59],[255, 59]],[[62, 96],[255, 96]],[[62, 124],[255, 124]]*</text>
</g>
<!-- 23&#45;&gt;19 -->
<g id="edge26" class="edge"><title>23&#45;&gt;19</title>
<path fill="none" stroke="black" d="M948.212,-336.983C867.494,-336.573 621.389,-332.699 420.249,-302 272.342,-279.426 185.624,-339.698 93.2489,-222 47.6555,-163.908 175.169,-123.324 239.996,-106.999"/>
<polygon fill="black" stroke="black" points="240.948,-110.369 249.826,-104.588 239.28,-103.57 240.948,-110.369"/>
<text text-anchor="middle" x="119.249" y="-216.7" font-family="Times,serif" font-size="6.00">*[[61, 36],[61, 36]]*</text>
</g>
<!-- 23&#45;&gt;20 -->
<g id="edge27" class="edge"><title>23&#45;&gt;20</title>
<path fill="none" stroke="black" d="M1002.23,-337.184C1200.6,-338.262 2428.6,-340.126 2536.25,-222 2632.05,-116.869 2010.87,-101.561 1849.74,-99.3631"/>
<polygon fill="black" stroke="black" points="1849.42,-95.8588 1839.38,-99.2314 1849.34,-102.858 1849.42,-95.8588"/>
<text text-anchor="middle" x="2612.75" y="-216.7" font-family="Times,serif" font-size="6.00">*[[0, 36],[37, 36]],[[39, 36],[60, 36]],[[62, 36],[255, 36]]*</text>
</g>
<!-- 23&#45;&gt;21 -->
<g id="edge28" class="edge"><title>23&#45;&gt;21</title>
<path fill="none" stroke="black" d="M951.153,-329.687C928.429,-322.739 893.444,-311.909 863.249,-302 832.01,-291.748 796.589,-279.504 771.449,-270.708"/>
<polygon fill="black" stroke="black" points="772.276,-267.289 761.681,-267.283 769.959,-273.895 772.276,-267.289"/>
<text text-anchor="middle" x="912.249" y="-296.7" font-family="Times,serif" font-size="6.00">*[[61, 0],[61, 37]],[[61, 39],[61, 255]]*</text>
</g>
<!-- 23&#45;&gt;22 -->
<g id="edge29" class="edge"><title>23&#45;&gt;22</title>
<path fill="none" stroke="black" d="M973.566,-319.709C972.436,-299.038 973.414,-264.206 989.249,-240 998.726,-225.514 1029.23,-227.381 1018.25,-214 1001.02,-193.011 925.652,-184.378 879.308,-181.005"/>
<polygon fill="black" stroke="black" points="879.543,-177.513 869.329,-180.327 879.069,-184.497 879.543,-177.513"/>
<text text-anchor="middle" x="1131.25" y="-256.7" font-family="Times,serif" font-size="6.00">*[[0, 0],[37, 37]],[[0, 39],[37, 255]],[[39, 0],[60, 37]],[[39, 39],[60, 255]],[[62, 0],[255, 37]],[[62, 39],[255, 255]]*</text>
</g>
<!-- 24 -->
<g id="node15" class="node"><title>24</title>
<ellipse fill="none" stroke="red" cx="144.249" cy="-338" rx="27" ry="18"/>
<text text-anchor="middle" x="144.249" y="-334.3" font-family="Times,serif" font-size="14.00">24</text>
</g>
<!-- 24&#45;&gt;17,14,0 -->
<g id="edge30" class="edge"><title>24&#45;&gt;17,14,0</title>
<path fill="none" stroke="black" d="M140.551,-319.799C136.091,-294.339 131.644,-246.174 153.249,-214 200.878,-143.07 303.373,-115.353 363.221,-104.93"/>
<polygon fill="black" stroke="black" points="363.864,-108.371 373.161,-103.289 362.724,-101.465 363.864,-108.371"/>
<text text-anchor="middle" x="228.749" y="-216.7" font-family="Times,serif" font-size="6.00">*[[61, 59],[61, 59]],[[61, 96],[61, 96]],[[61, 124],[61, 124]]*</text>
</g>
<!-- 24&#45;&gt;19 -->
<g id="edge31" class="edge"><title>24&#45;&gt;19</title>
<path fill="none" stroke="black" d="M120.287,-329.493C75.0405,-313.8 -16.731,-273.94 3.24886,-214 17.3034,-171.836 25.2537,-157.058 63.2489,-134 91.9652,-116.573 185.196,-106.344 237.96,-101.81"/>
<polygon fill="black" stroke="black" points="238.579,-105.271 248.254,-100.954 237.998,-98.2949 238.579,-105.271"/>
<text text-anchor="middle" x="29.2489" y="-216.7" font-family="Times,serif" font-size="6.00">*[[61, 36],[61, 36]]*</text>
</g>
<!-- 24&#45;&gt;21 -->
<g id="edge32" class="edge"><title>24&#45;&gt;21</title>
<path fill="none" stroke="black" d="M170.539,-333.548C265.699,-321.052 592.329,-278.161 702.005,-263.759"/>
<polygon fill="black" stroke="black" points="702.467,-267.229 711.927,-262.456 701.556,-260.288 702.467,-267.229"/>
<text text-anchor="middle" x="508.249" y="-296.7" font-family="Times,serif" font-size="6.00">*[[61, 0],[61, 37]],[[61, 39],[61, 255]]*</text>
</g>
<!-- 25&#45;&gt;23 -->
<g id="edge33" class="edge"><title>25&#45;&gt;23</title>
<path fill="none" stroke="black" d="M975.249,-399.689C975.249,-389.894 975.249,-377.422 975.249,-366.335"/>
<polygon fill="black" stroke="black" points="978.749,-366.262 975.249,-356.262 971.749,-366.262 978.749,-366.262"/>
<text text-anchor="middle" x="1027.25" y="-376.7" font-family="Times,serif" font-size="6.00">*[[82, 61],[82, 61]],[[114, 61],[114, 61]]*</text>
</g>
<!-- 26&#45;&gt;24 -->
<g id="edge34" class="edge"><title>26&#45;&gt;24</title>
<path fill="none" stroke="black" d="M145.027,-399.689C144.901,-389.894 144.741,-377.422 144.599,-366.335"/>
<polygon fill="black" stroke="black" points="148.098,-366.217 144.47,-356.262 141.099,-366.306 148.098,-366.217"/>
<text text-anchor="middle" x="252.749" y="-376.7" font-family="Times,serif" font-size="6.00">*[[69, 82],[69, 82]],[[69, 114],[69, 114]],[[101, 82],[101, 82]],[[101, 114],[101, 114]]*</text>
</g>
<!-- 28&#45;&gt;25 -->
<g id="edge36" class="edge"><title>28&#45;&gt;25</title>
<path fill="none" stroke="black" d="M740.351,-479.987C739.387,-471.192 740.05,-460.888 746.249,-454 771.134,-426.35 879.628,-420.384 937.906,-419.202"/>
<polygon fill="black" stroke="black" points="938.23,-422.698 948.171,-419.033 938.115,-415.699 938.23,-422.698"/>
<text text-anchor="middle" x="853.749" y="-456.7" font-family="Times,serif" font-size="6.00">*[[83, 69],[83, 69]],[[83, 101],[83, 101]],[[115, 69],[115, 69]],[[115, 101],[115, 101]]*</text>
</g>
<!-- 30&#45;&gt;26 -->
<g id="edge38" class="edge"><title>30&#45;&gt;26</title>
<path fill="none" stroke="black" d="M383.308,-487.327C377.196,-484.79 370.513,-482.162 364.249,-480 300.351,-457.945 223.929,-438.098 180.341,-427.375"/>
<polygon fill="black" stroke="black" points="181.059,-423.948 170.514,-424.976 179.398,-430.748 181.059,-423.948"/>
<text text-anchor="middle" x="412.749" y="-456.7" font-family="Times,serif" font-size="6.00">*[[85, 83],[85, 83]],[[85, 115],[85, 115]],[[117, 83],[117, 83]],[[117, 115],[117, 115]]*</text>
</g>
<!-- 32&#45;&gt;32 -->
<g id="edge42" class="edge"><title>32&#45;&gt;32</title>
<path fill="none" stroke="black" d="M542.94,-615.769C554.673,-617.272 565.249,-614.016 565.249,-606 565.249,-600.489 560.25,-597.228 553.313,-596.216"/>
<polygon fill="black" stroke="black" points="552.935,-592.717 542.94,-596.231 552.945,-599.717 552.935,-592.717"/>
<text text-anchor="middle" x="591.249" y="-604.7" font-family="Times,serif" font-size="6.00">*[[0, 0],[255, 255]]*</text>
</g>
<!-- 32&#45;&gt;28 -->
<g id="edge43" class="edge"><title>32&#45;&gt;28</title>
<path fill="none" stroke="black" d="M516.648,-588.02C514.319,-571.962 513.844,-548.258 527.249,-534 551.13,-508.599 651.473,-501.628 706.96,-499.718"/>
<polygon fill="black" stroke="black" points="707.208,-503.212 717.096,-499.408 706.994,-496.215 707.208,-503.212"/>
<text text-anchor="middle" x="628.749" y="-550.7" font-family="Times,serif" font-size="6.00">*[[38, 85],[38, 85]],[[38, 117],[38, 117]],[[63, 85],[63, 85]],[[63, 117],[63, 117]]*</text>
</g>
<!-- 32&#45;&gt;30 -->
<g id="edge44" class="edge"><title>32&#45;&gt;30</title>
<path fill="none" stroke="black" d="M497.467,-596.093C490.108,-593.347 481.879,-590.414 474.249,-588 444.442,-578.571 425.492,-594.639 406.249,-570 396.663,-557.726 396.294,-540.275 398.381,-525.746"/>
<polygon fill="black" stroke="black" points="401.843,-526.271 400.237,-515.798 394.962,-524.987 401.843,-526.271"/>
<text text-anchor="middle" x="455.249" y="-550.7" font-family="Times,serif" font-size="6.00">*[[0, 38],[255, 38]],[[0, 63],[255, 63]]*</text>
</g>
</g>
</svg>
