<?xml version="1.0" encoding="UTF-8" standalone="no"?>
<!DOCTYPE svg PUBLIC "-//W3C//DTD SVG 1.1//EN"
 "http://www.w3.org/Graphics/SVG/1.1/DTD/svg11.dtd">
<!-- Generated by graphviz version 2.30.1 (20180420.1509)
 -->
<!-- Title: %3 Pages: 1 -->
<svg width="118pt" height="1084pt"
 viewBox="0.00 0.00 118.00 1084.00" xmlns="http://www.w3.org/2000/svg" xmlns:xlink="http://www.w3.org/1999/xlink">
<g id="graph0" class="graph" transform="scale(1 1) rotate(0) translate(4 1080)">
<title>%3</title>
<polygon fill="white" stroke="white" points="-4,5 -4,-1080 115,-1080 115,5 -4,5"/>
<!-- 448,22,0 -->
<g id="node1" class="node"><title>448,22,0</title>
<ellipse fill="none" stroke="blue" cx="42" cy="-18" rx="42.3701" ry="18"/>
<text text-anchor="middle" x="42" y="-14.3" font-family="Times,serif" font-size="14.00">448,22,0</text>
</g>
<!-- 0 -->
<g id="node2" class="node"><title>0</title>
<ellipse fill="none" stroke="black" cx="42" cy="-1058" rx="27" ry="18"/>
<text text-anchor="middle" x="42" y="-1054.3" font-family="Times,serif" font-size="14.00">0</text>
</g>
<!-- 436 -->
<g id="node3" class="node"><title>436</title>
<ellipse fill="none" stroke="orange" cx="42" cy="-978" rx="27" ry="18"/>
<text text-anchor="middle" x="42" y="-974.3" font-family="Times,serif" font-size="14.00">436</text>
</g>
<!-- 0&#45;&gt;436 -->
<g id="edge1" class="edge"><title>0&#45;&gt;436</title>
<path fill="none" stroke="black" d="M42,-1039.69C42,-1029.89 42,-1017.42 42,-1006.33"/>
<polygon fill="black" stroke="black" points="45.5001,-1006.26 42,-996.262 38.5001,-1006.26 45.5001,-1006.26"/>
<text text-anchor="middle" x="76" y="-1016.7" font-family="Times,serif" font-size="6.00">*[[84],[84]],[[116],[116]]*</text>
</g>
<!-- 437 -->
<g id="node4" class="node"><title>437</title>
<ellipse fill="none" stroke="red" cx="42" cy="-898" rx="27" ry="18"/>
<text text-anchor="middle" x="42" y="-894.3" font-family="Times,serif" font-size="14.00">437</text>
</g>
<!-- 436&#45;&gt;437 -->
<g id="edge2" class="edge"><title>436&#45;&gt;437</title>
<path fill="none" stroke="black" d="M42,-959.689C42,-949.894 42,-937.422 42,-926.335"/>
<polygon fill="black" stroke="black" points="45.5001,-926.262 42,-916.262 38.5001,-926.262 45.5001,-926.262"/>
<text text-anchor="middle" x="73" y="-936.7" font-family="Times,serif" font-size="6.00">*[[65],[65]],[[97],[97]]*</text>
</g>
<!-- 438 -->
<g id="node5" class="node"><title>438</title>
<ellipse fill="none" stroke="red" cx="42" cy="-818" rx="27" ry="18"/>
<text text-anchor="middle" x="42" y="-814.3" font-family="Times,serif" font-size="14.00">438</text>
</g>
<!-- 437&#45;&gt;438 -->
<g id="edge3" class="edge"><title>437&#45;&gt;438</title>
<path fill="none" stroke="black" d="M42,-879.689C42,-869.894 42,-857.422 42,-846.335"/>
<polygon fill="black" stroke="black" points="45.5001,-846.262 42,-836.262 38.5001,-846.262 45.5001,-846.262"/>
<text text-anchor="middle" x="76" y="-856.7" font-family="Times,serif" font-size="6.00">*[[82],[82]],[[114],[114]]*</text>
</g>
<!-- 439 -->
<g id="node6" class="node"><title>439</title>
<ellipse fill="none" stroke="red" cx="42" cy="-738" rx="27" ry="18"/>
<text text-anchor="middle" x="42" y="-734.3" font-family="Times,serif" font-size="14.00">439</text>
</g>
<!-- 438&#45;&gt;439 -->
<g id="edge4" class="edge"><title>438&#45;&gt;439</title>
<path fill="none" stroke="black" d="M42,-799.689C42,-789.894 42,-777.422 42,-766.335"/>
<polygon fill="black" stroke="black" points="45.5001,-766.262 42,-756.262 38.5001,-766.262 45.5001,-766.262"/>
<text text-anchor="middle" x="76" y="-776.7" font-family="Times,serif" font-size="6.00">*[[71],[71]],[[103],[103]]*</text>
</g>
<!-- 440 -->
<g id="node7" class="node"><title>440</title>
<ellipse fill="none" stroke="red" cx="42" cy="-658" rx="27" ry="18"/>
<text text-anchor="middle" x="42" y="-654.3" font-family="Times,serif" font-size="14.00">440</text>
</g>
<!-- 439&#45;&gt;440 -->
<g id="edge5" class="edge"><title>439&#45;&gt;440</title>
<path fill="none" stroke="black" d="M42,-719.689C42,-709.894 42,-697.422 42,-686.335"/>
<polygon fill="black" stroke="black" points="45.5001,-686.262 42,-676.262 38.5001,-686.262 45.5001,-686.262"/>
<text text-anchor="middle" x="76" y="-696.7" font-family="Times,serif" font-size="6.00">*[[69],[69]],[[101],[101]]*</text>
</g>
<!-- 441 -->
<g id="node8" class="node"><title>441</title>
<ellipse fill="none" stroke="red" cx="42" cy="-578" rx="27" ry="18"/>
<text text-anchor="middle" x="42" y="-574.3" font-family="Times,serif" font-size="14.00">441</text>
</g>
<!-- 440&#45;&gt;441 -->
<g id="edge6" class="edge"><title>440&#45;&gt;441</title>
<path fill="none" stroke="black" d="M42,-639.689C42,-629.894 42,-617.422 42,-606.335"/>
<polygon fill="black" stroke="black" points="45.5001,-606.262 42,-596.262 38.5001,-606.262 45.5001,-606.262"/>
<text text-anchor="middle" x="76" y="-616.7" font-family="Times,serif" font-size="6.00">*[[84],[84]],[[116],[116]]*</text>
</g>
<!-- 442 -->
<g id="node9" class="node"><title>442</title>
<ellipse fill="none" stroke="red" cx="42" cy="-498" rx="27" ry="18"/>
<text text-anchor="middle" x="42" y="-494.3" font-family="Times,serif" font-size="14.00">442</text>
</g>
<!-- 441&#45;&gt;442 -->
<g id="edge7" class="edge"><title>441&#45;&gt;442</title>
<path fill="none" stroke="black" d="M42,-559.689C42,-549.894 42,-537.422 42,-526.335"/>
<polygon fill="black" stroke="black" points="45.5001,-526.262 42,-516.262 38.5001,-526.262 45.5001,-526.262"/>
<text text-anchor="middle" x="59" y="-536.7" font-family="Times,serif" font-size="6.00">*[[61],[61]]*</text>
</g>
<!-- 443 -->
<g id="node10" class="node"><title>443</title>
<ellipse fill="none" stroke="red" cx="42" cy="-418" rx="27" ry="18"/>
<text text-anchor="middle" x="42" y="-414.3" font-family="Times,serif" font-size="14.00">443</text>
</g>
<!-- 442&#45;&gt;443 -->
<g id="edge8" class="edge"><title>442&#45;&gt;443</title>
<path fill="none" stroke="black" d="M42,-479.689C42,-469.894 42,-457.422 42,-446.335"/>
<polygon fill="black" stroke="black" points="45.5001,-446.262 42,-436.262 38.5001,-446.262 45.5001,-446.262"/>
<text text-anchor="middle" x="59" y="-456.7" font-family="Times,serif" font-size="6.00">*[[46],[46]]*</text>
</g>
<!-- 444 -->
<g id="node11" class="node"><title>444</title>
<ellipse fill="none" stroke="red" cx="42" cy="-338" rx="27" ry="18"/>
<text text-anchor="middle" x="42" y="-334.3" font-family="Times,serif" font-size="14.00">444</text>
</g>
<!-- 443&#45;&gt;444 -->
<g id="edge9" class="edge"><title>443&#45;&gt;444</title>
<path fill="none" stroke="black" d="M42,-399.689C42,-389.894 42,-377.422 42,-366.335"/>
<polygon fill="black" stroke="black" points="45.5001,-366.262 42,-356.262 38.5001,-366.262 45.5001,-366.262"/>
<text text-anchor="middle" x="59" y="-376.7" font-family="Times,serif" font-size="6.00">*[[46],[46]]*</text>
</g>
<!-- 445 -->
<g id="node12" class="node"><title>445</title>
<ellipse fill="none" stroke="red" cx="42" cy="-258" rx="27" ry="18"/>
<text text-anchor="middle" x="42" y="-254.3" font-family="Times,serif" font-size="14.00">445</text>
</g>
<!-- 444&#45;&gt;445 -->
<g id="edge10" class="edge"><title>444&#45;&gt;445</title>
<path fill="none" stroke="black" d="M42,-319.689C42,-309.894 42,-297.422 42,-286.335"/>
<polygon fill="black" stroke="black" points="45.5001,-286.262 42,-276.262 38.5001,-286.262 45.5001,-286.262"/>
<text text-anchor="middle" x="73" y="-296.7" font-family="Times,serif" font-size="6.00">*[[47],[47]],[[92],[92]]*</text>
</g>
<!-- 446 -->
<g id="node13" class="node"><title>446</title>
<ellipse fill="none" stroke="red" cx="42" cy="-178" rx="27" ry="18"/>
<text text-anchor="middle" x="42" y="-174.3" font-family="Times,serif" font-size="14.00">446</text>
</g>
<!-- 445&#45;&gt;446 -->
<g id="edge11" class="edge"><title>445&#45;&gt;446</title>
<path fill="none" stroke="black" d="M42,-239.689C42,-229.894 42,-217.422 42,-206.335"/>
<polygon fill="black" stroke="black" points="45.5001,-206.262 42,-196.262 38.5001,-206.262 45.5001,-206.262"/>
<text text-anchor="middle" x="59" y="-216.7" font-family="Times,serif" font-size="6.00">*[[46],[46]]*</text>
</g>
<!-- 447 -->
<g id="node14" class="node"><title>447</title>
<ellipse fill="none" stroke="red" cx="42" cy="-98" rx="27" ry="18"/>
<text text-anchor="middle" x="42" y="-94.3" font-family="Times,serif" font-size="14.00">447</text>
</g>
<!-- 446&#45;&gt;447 -->
<g id="edge12" class="edge"><title>446&#45;&gt;447</title>
<path fill="none" stroke="black" d="M42,-159.689C42,-149.894 42,-137.422 42,-126.335"/>
<polygon fill="black" stroke="black" points="45.5001,-126.262 42,-116.262 38.5001,-126.262 45.5001,-126.262"/>
<text text-anchor="middle" x="59" y="-136.7" font-family="Times,serif" font-size="6.00">*[[46],[46]]*</text>
</g>
<!-- 447&#45;&gt;448,22,0 -->
<g id="edge13" class="edge"><title>447&#45;&gt;448,22,0</title>
<path fill="none" stroke="black" d="M42,-79.6893C42,-69.8938 42,-57.4218 42,-46.335"/>
<polygon fill="black" stroke="black" points="45.5001,-46.2623 42,-36.2623 38.5001,-46.2624 45.5001,-46.2623"/>
<text text-anchor="middle" x="73" y="-56.7" font-family="Times,serif" font-size="6.00">*[[47],[47]],[[92],[92]]*</text>
</g>
</g>
</svg>
