<?xml version="1.0" encoding="UTF-8" standalone="no"?>
<!DOCTYPE svg PUBLIC "-//W3C//DTD SVG 1.1//EN"
 "http://www.w3.org/Graphics/SVG/1.1/DTD/svg11.dtd">
<!-- Generated by graphviz version 2.30.1 (20180420.1509)
 -->
<!-- Title: %3 Pages: 1 -->
<svg width="313pt" height="764pt"
 viewBox="0.00 0.00 313.00 764.00" xmlns="http://www.w3.org/2000/svg" xmlns:xlink="http://www.w3.org/1999/xlink">
<g id="graph0" class="graph" transform="scale(1 1) rotate(0) translate(4 760)">
<title>%3</title>
<polygon fill="white" stroke="white" points="-4,5 -4,-760 310,-760 310,5 -4,5"/>
<!-- 288 -->
<g id="node1" class="node"><title>288</title>
<ellipse fill="none" stroke="red" cx="147" cy="-498" rx="27" ry="18"/>
<text text-anchor="middle" x="147" y="-494.3" font-family="Times,serif" font-size="14.00">288</text>
</g>
<!-- 289 -->
<g id="node2" class="node"><title>289</title>
<ellipse fill="none" stroke="red" cx="147" cy="-418" rx="27" ry="18"/>
<text text-anchor="middle" x="147" y="-414.3" font-family="Times,serif" font-size="14.00">289</text>
</g>
<!-- 288&#45;&gt;289 -->
<g id="edge1" class="edge"><title>288&#45;&gt;289</title>
<path fill="none" stroke="black" d="M147,-479.689C147,-469.894 147,-457.422 147,-446.335"/>
<polygon fill="black" stroke="black" points="150.5,-446.262 147,-436.262 143.5,-446.262 150.5,-446.262"/>
<text text-anchor="middle" x="181" y="-456.7" font-family="Times,serif" font-size="6.00">*[[69],[69]],[[101],[101]]*</text>
</g>
<!-- 290 -->
<g id="node3" class="node"><title>290</title>
<ellipse fill="none" stroke="red" cx="147" cy="-338" rx="27" ry="18"/>
<text text-anchor="middle" x="147" y="-334.3" font-family="Times,serif" font-size="14.00">290</text>
</g>
<!-- 289&#45;&gt;290 -->
<g id="edge2" class="edge"><title>289&#45;&gt;290</title>
<path fill="none" stroke="black" d="M147,-399.689C147,-389.894 147,-377.422 147,-366.335"/>
<polygon fill="black" stroke="black" points="150.5,-366.262 147,-356.262 143.5,-366.262 150.5,-366.262"/>
<text text-anchor="middle" x="181" y="-376.7" font-family="Times,serif" font-size="6.00">*[[82],[82]],[[114],[114]]*</text>
</g>
<!-- 291 -->
<g id="node4" class="node"><title>291</title>
<ellipse fill="none" stroke="red" cx="147" cy="-258" rx="27" ry="18"/>
<text text-anchor="middle" x="147" y="-254.3" font-family="Times,serif" font-size="14.00">291</text>
</g>
<!-- 290&#45;&gt;291 -->
<g id="edge3" class="edge"><title>290&#45;&gt;291</title>
<path fill="none" stroke="black" d="M147,-319.689C147,-309.894 147,-297.422 147,-286.335"/>
<polygon fill="black" stroke="black" points="150.5,-286.262 147,-276.262 143.5,-286.262 150.5,-286.262"/>
<text text-anchor="middle" x="164" y="-296.7" font-family="Times,serif" font-size="6.00">*[[61],[61]]*</text>
</g>
<!-- 292 -->
<g id="node5" class="node"><title>292</title>
<ellipse fill="none" stroke="red" cx="147" cy="-178" rx="27" ry="18"/>
<text text-anchor="middle" x="147" y="-174.3" font-family="Times,serif" font-size="14.00">292</text>
</g>
<!-- 291&#45;&gt;292 -->
<g id="edge4" class="edge"><title>291&#45;&gt;292</title>
<path fill="none" stroke="black" d="M147,-239.689C147,-229.894 147,-217.422 147,-206.335"/>
<polygon fill="black" stroke="black" points="150.5,-206.262 147,-196.262 143.5,-206.262 150.5,-206.262"/>
<text text-anchor="middle" x="178" y="-216.7" font-family="Times,serif" font-size="6.00">*[[0],[37]],[[39],[255]]*</text>
</g>
<!-- 293,14,0 -->
<g id="node6" class="node"><title>293,14,0</title>
<ellipse fill="none" stroke="blue" cx="42" cy="-98" rx="42.3701" ry="18"/>
<text text-anchor="middle" x="42" y="-94.3" font-family="Times,serif" font-size="14.00">293,14,0</text>
</g>
<!-- 291&#45;&gt;293,14,0 -->
<g id="edge5" class="edge"><title>291&#45;&gt;293,14,0</title>
<path fill="none" stroke="black" d="M120.783,-253.435C89.2193,-247.584 37.5239,-232.669 14,-196 -0.180192,-173.896 11.829,-144.439 24.2293,-123.808"/>
<polygon fill="black" stroke="black" points="27.2425,-125.593 29.6765,-115.281 21.3434,-121.824 27.2425,-125.593"/>
<text text-anchor="middle" x="62.5" y="-176.7" font-family="Times,serif" font-size="6.00">*[[59],[59]],[[96],[96]],[[124],[124]]*</text>
</g>
<!-- 294 -->
<g id="node7" class="node"><title>294</title>
<ellipse fill="none" stroke="red" cx="255" cy="-98" rx="27" ry="18"/>
<text text-anchor="middle" x="255" y="-94.3" font-family="Times,serif" font-size="14.00">294</text>
</g>
<!-- 291&#45;&gt;294 -->
<g id="edge6" class="edge"><title>291&#45;&gt;294</title>
<path fill="none" stroke="black" d="M172.439,-251.737C200.236,-244.478 243.414,-228.429 263,-196 275.854,-174.718 271.289,-145.855 265.082,-125.157"/>
<polygon fill="black" stroke="black" points="268.333,-123.839 261.872,-115.442 261.686,-126.035 268.333,-123.839"/>
<text text-anchor="middle" x="288" y="-176.7" font-family="Times,serif" font-size="6.00">*[[36],[36]]*</text>
</g>
<!-- 292&#45;&gt;292 -->
<g id="edge7" class="edge"><title>292&#45;&gt;292</title>
<path fill="none" stroke="black" d="M171.989,-185.41C182.77,-186.017 192,-183.547 192,-178 192,-174.36 188.025,-172.045 182.245,-171.055"/>
<polygon fill="black" stroke="black" points="182.137,-167.546 171.989,-170.59 181.82,-174.539 182.137,-167.546"/>
<text text-anchor="middle" x="223" y="-176.7" font-family="Times,serif" font-size="6.00">*[[0],[37]],[[39],[255]]*</text>
</g>
<!-- 292&#45;&gt;293,14,0 -->
<g id="edge8" class="edge"><title>292&#45;&gt;293,14,0</title>
<path fill="none" stroke="black" d="M129.661,-164.12C113.599,-152.188 89.4087,-134.218 70.506,-120.176"/>
<polygon fill="black" stroke="black" points="72.3558,-117.19 62.2412,-114.036 68.1815,-122.809 72.3558,-117.19"/>
<text text-anchor="middle" x="146.5" y="-136.7" font-family="Times,serif" font-size="6.00">*[[59],[59]],[[96],[96]],[[124],[124]]*</text>
</g>
<!-- 292&#45;&gt;294 -->
<g id="edge9" class="edge"><title>292&#45;&gt;294</title>
<path fill="none" stroke="black" d="M165.552,-164.561C175.286,-157.961 187.367,-149.654 198,-142 208.505,-134.439 219.923,-125.892 229.761,-118.422"/>
<polygon fill="black" stroke="black" points="232.109,-121.033 237.938,-112.186 227.864,-115.467 232.109,-121.033"/>
<text text-anchor="middle" x="225" y="-136.7" font-family="Times,serif" font-size="6.00">*[[36],[36]]*</text>
</g>
<!-- 295,14,0 -->
<g id="node8" class="node"><title>295,14,0</title>
<ellipse fill="none" stroke="blue" cx="255" cy="-18" rx="42.3701" ry="18"/>
<text text-anchor="middle" x="255" y="-14.3" font-family="Times,serif" font-size="14.00">295,14,0</text>
</g>
<!-- 294&#45;&gt;295,14,0 -->
<g id="edge10" class="edge"><title>294&#45;&gt;295,14,0</title>
<path fill="none" stroke="black" d="M255,-79.6893C255,-69.8938 255,-57.4218 255,-46.335"/>
<polygon fill="black" stroke="black" points="258.5,-46.2623 255,-36.2623 251.5,-46.2624 258.5,-46.2623"/>
<text text-anchor="middle" x="272" y="-56.7" font-family="Times,serif" font-size="6.00">*[[40],[40]]*</text>
</g>
<!-- 0 -->
<g id="node9" class="node"><title>0</title>
<ellipse fill="none" stroke="black" cx="147" cy="-738" rx="27" ry="18"/>
<text text-anchor="middle" x="147" y="-734.3" font-family="Times,serif" font-size="14.00">0</text>
</g>
<!-- 286 -->
<g id="node10" class="node"><title>286</title>
<ellipse fill="none" stroke="orange" cx="147" cy="-658" rx="27" ry="18"/>
<text text-anchor="middle" x="147" y="-654.3" font-family="Times,serif" font-size="14.00">286</text>
</g>
<!-- 0&#45;&gt;286 -->
<g id="edge11" class="edge"><title>0&#45;&gt;286</title>
<path fill="none" stroke="black" d="M147,-719.689C147,-709.894 147,-697.422 147,-686.335"/>
<polygon fill="black" stroke="black" points="150.5,-686.262 147,-676.262 143.5,-686.262 150.5,-686.262"/>
<text text-anchor="middle" x="178" y="-696.7" font-family="Times,serif" font-size="6.00">*[[38],[38]],[[63],[63]]*</text>
</g>
<!-- 287 -->
<g id="node11" class="node"><title>287</title>
<ellipse fill="none" stroke="red" cx="147" cy="-578" rx="27" ry="18"/>
<text text-anchor="middle" x="147" y="-574.3" font-family="Times,serif" font-size="14.00">287</text>
</g>
<!-- 286&#45;&gt;287 -->
<g id="edge12" class="edge"><title>286&#45;&gt;287</title>
<path fill="none" stroke="black" d="M147,-639.689C147,-629.894 147,-617.422 147,-606.335"/>
<polygon fill="black" stroke="black" points="150.5,-606.262 147,-596.262 143.5,-606.262 150.5,-606.262"/>
<text text-anchor="middle" x="181" y="-616.7" font-family="Times,serif" font-size="6.00">*[[85],[85]],[[117],[117]]*</text>
</g>
<!-- 287&#45;&gt;288 -->
<g id="edge13" class="edge"><title>287&#45;&gt;288</title>
<path fill="none" stroke="black" d="M147,-559.689C147,-549.894 147,-537.422 147,-526.335"/>
<polygon fill="black" stroke="black" points="150.5,-526.262 147,-516.262 143.5,-526.262 150.5,-526.262"/>
<text text-anchor="middle" x="181" y="-536.7" font-family="Times,serif" font-size="6.00">*[[83],[83]],[[115],[115]]*</text>
</g>
</g>
</svg>
