<?xml version="1.0" encoding="UTF-8" standalone="no"?>
<!DOCTYPE svg PUBLIC "-//W3C//DTD SVG 1.1//EN"
 "http://www.w3.org/Graphics/SVG/1.1/DTD/svg11.dtd">
<!-- Generated by graphviz version 2.30.1 (20180420.1509)
 -->
<!-- Title: %3 Pages: 1 -->
<svg width="1280pt" height="604pt"
 viewBox="0.00 0.00 1280.00 604.00" xmlns="http://www.w3.org/2000/svg" xmlns:xlink="http://www.w3.org/1999/xlink">
<g id="graph0" class="graph" transform="scale(1 1) rotate(0) translate(4 600)">
<title>%3</title>
<polygon fill="white" stroke="white" points="-4,5 -4,-600 1277,-600 1277,5 -4,5"/>
<!-- 0 -->
<g id="node1" class="node"><title>0</title>
<ellipse fill="none" stroke="black" cx="708" cy="-578" rx="27" ry="18"/>
<text text-anchor="middle" x="708" y="-574.3" font-family="Times,serif" font-size="14.00">0</text>
</g>
<!-- 1 -->
<g id="node2" class="node"><title>1</title>
<ellipse fill="none" stroke="yellow" cx="708" cy="-498" rx="27" ry="18"/>
<text text-anchor="middle" x="708" y="-494.3" font-family="Times,serif" font-size="14.00">1</text>
</g>
<!-- 0&#45;&gt;1 -->
<g id="edge1" class="edge"><title>0&#45;&gt;1</title>
<path fill="none" stroke="black" d="M708,-559.689C708,-549.894 708,-537.422 708,-526.335"/>
<polygon fill="black" stroke="black" points="711.5,-526.262 708,-516.262 704.5,-526.262 711.5,-526.262"/>
<text text-anchor="middle" x="734" y="-536.7" font-family="Times,serif" font-size="6.00">*[[0, 0],[255, 255]]*</text>
</g>
<!-- 2 -->
<g id="node3" class="node"><title>2</title>
<ellipse fill="none" stroke="yellow" cx="841" cy="-418" rx="27" ry="18"/>
<text text-anchor="middle" x="841" y="-414.3" font-family="Times,serif" font-size="14.00">2</text>
</g>
<!-- 0&#45;&gt;2 -->
<g id="edge2" class="edge"><title>0&#45;&gt;2</title>
<path fill="none" stroke="black" d="M731.849,-569.357C756.064,-560.382 792.91,-543.172 814,-516 829.608,-495.892 836.195,-467.275 838.975,-446.335"/>
<polygon fill="black" stroke="black" points="842.478,-446.497 840.109,-436.17 835.521,-445.72 842.478,-446.497"/>
<text text-anchor="middle" x="881" y="-496.7" font-family="Times,serif" font-size="6.00">*[[0, 38],[255, 38]],[[0, 63],[255, 63]]*</text>
</g>
<!-- 3 -->
<g id="node4" class="node"><title>3</title>
<ellipse fill="none" stroke="yellow" cx="460" cy="-418" rx="27" ry="18"/>
<text text-anchor="middle" x="460" y="-414.3" font-family="Times,serif" font-size="14.00">3</text>
</g>
<!-- 0&#45;&gt;3 -->
<g id="edge3" class="edge"><title>0&#45;&gt;3</title>
<path fill="none" stroke="black" d="M681.421,-574.042C625.092,-567.195 496.598,-548.323 469,-516 452.747,-496.965 452.278,-467.52 454.775,-446.063"/>
<polygon fill="black" stroke="black" points="458.269,-446.358 456.233,-435.96 451.341,-445.358 458.269,-446.358"/>
<text text-anchor="middle" x="570.5" y="-496.7" font-family="Times,serif" font-size="6.00">*[[38, 85],[38, 85]],[[38, 117],[38, 117]],[[63, 85],[63, 85]],[[63, 117],[63, 117]]*</text>
</g>
<!-- 1&#45;&gt;1 -->
<g id="edge4" class="edge"><title>1&#45;&gt;1</title>
<path fill="none" stroke="black" d="M732.989,-505.41C743.77,-506.017 753,-503.547 753,-498 753,-494.36 749.025,-492.045 743.245,-491.055"/>
<polygon fill="black" stroke="black" points="743.137,-487.546 732.989,-490.59 742.82,-494.539 743.137,-487.546"/>
<text text-anchor="middle" x="779" y="-496.7" font-family="Times,serif" font-size="6.00">*[[0, 0],[255, 255]]*</text>
</g>
<!-- 1&#45;&gt;2 -->
<g id="edge5" class="edge"><title>1&#45;&gt;2</title>
<path fill="none" stroke="black" d="M712.759,-479.847C716.014,-471.011 721.185,-460.713 729,-454 750,-435.962 780.264,-427.212 804.039,-422.972"/>
<polygon fill="black" stroke="black" points="804.791,-426.396 814.117,-421.37 803.692,-419.483 804.791,-426.396"/>
<text text-anchor="middle" x="778" y="-456.7" font-family="Times,serif" font-size="6.00">*[[0, 38],[255, 38]],[[0, 63],[255, 63]]*</text>
</g>
<!-- 1&#45;&gt;3 -->
<g id="edge6" class="edge"><title>1&#45;&gt;3</title>
<path fill="none" stroke="black" d="M686.679,-486.862C680.455,-484.261 673.56,-481.716 667,-480 601.614,-462.896 578.595,-487.492 516,-462 503.583,-456.943 491.554,-448.358 481.848,-440.183"/>
<polygon fill="black" stroke="black" points="484.095,-437.498 474.284,-433.499 479.46,-442.743 484.095,-437.498"/>
<text text-anchor="middle" x="617.5" y="-456.7" font-family="Times,serif" font-size="6.00">*[[38, 85],[38, 85]],[[38, 117],[38, 117]],[[63, 85],[63, 85]],[[63, 117],[63, 117]]*</text>
</g>
<!-- 4 -->
<g id="node5" class="node"><title>4</title>
<ellipse fill="none" stroke="yellow" cx="1035" cy="-338" rx="27" ry="18"/>
<text text-anchor="middle" x="1035" y="-334.3" font-family="Times,serif" font-size="14.00">4</text>
</g>
<!-- 2&#45;&gt;4 -->
<g id="edge7" class="edge"><title>2&#45;&gt;4</title>
<path fill="none" stroke="black" d="M863.634,-407.9C898.095,-394.044 963.853,-367.605 1003.13,-351.814"/>
<polygon fill="black" stroke="black" points="1004.54,-355.02 1012.51,-348.042 1001.93,-348.525 1004.54,-355.02"/>
<text text-anchor="middle" x="1051.5" y="-376.7" font-family="Times,serif" font-size="6.00">*[[85, 83],[85, 83]],[[85, 115],[85, 115]],[[117, 83],[117, 83]],[[117, 115],[117, 115]]*</text>
</g>
<!-- 5 -->
<g id="node6" class="node"><title>5</title>
<ellipse fill="none" stroke="yellow" cx="323" cy="-338" rx="27" ry="18"/>
<text text-anchor="middle" x="323" y="-334.3" font-family="Times,serif" font-size="14.00">5</text>
</g>
<!-- 3&#45;&gt;5 -->
<g id="edge8" class="edge"><title>3&#45;&gt;5</title>
<path fill="none" stroke="black" d="M440.079,-405.658C416.844,-392.43 378.246,-370.454 351.762,-355.376"/>
<polygon fill="black" stroke="black" points="353.367,-352.262 342.945,-350.356 349.904,-358.345 353.367,-352.262"/>
<text text-anchor="middle" x="503.5" y="-376.7" font-family="Times,serif" font-size="6.00">*[[83, 69],[83, 69]],[[83, 101],[83, 101]],[[115, 69],[115, 69]],[[115, 101],[115, 101]]*</text>
</g>
<!-- 6 -->
<g id="node7" class="node"><title>6</title>
<ellipse fill="none" stroke="yellow" cx="1059" cy="-258" rx="27" ry="18"/>
<text text-anchor="middle" x="1059" y="-254.3" font-family="Times,serif" font-size="14.00">6</text>
</g>
<!-- 4&#45;&gt;6 -->
<g id="edge9" class="edge"><title>4&#45;&gt;6</title>
<path fill="none" stroke="black" d="M1040.21,-320.075C1043.29,-310.058 1047.26,-297.145 1050.76,-285.774"/>
<polygon fill="black" stroke="black" points="1054.21,-286.479 1053.8,-275.892 1047.52,-284.42 1054.21,-286.479"/>
<text text-anchor="middle" x="1155.5" y="-296.7" font-family="Times,serif" font-size="6.00">*[[69, 82],[69, 82]],[[69, 114],[69, 114]],[[101, 82],[101, 82]],[[101, 114],[101, 114]]*</text>
</g>
<!-- 7 -->
<g id="node8" class="node"><title>7</title>
<ellipse fill="none" stroke="yellow" cx="314" cy="-258" rx="27" ry="18"/>
<text text-anchor="middle" x="314" y="-254.3" font-family="Times,serif" font-size="14.00">7</text>
</g>
<!-- 5&#45;&gt;7 -->
<g id="edge10" class="edge"><title>5&#45;&gt;7</title>
<path fill="none" stroke="black" d="M321.003,-319.689C319.865,-309.826 318.413,-297.248 317.127,-286.104"/>
<polygon fill="black" stroke="black" points="320.584,-285.527 315.961,-275.994 313.63,-286.329 320.584,-285.527"/>
<text text-anchor="middle" x="371" y="-296.7" font-family="Times,serif" font-size="6.00">*[[82, 61],[82, 61]],[[114, 61],[114, 61]]*</text>
</g>
<!-- 8 -->
<g id="node9" class="node"><title>8</title>
<ellipse fill="none" stroke="yellow" cx="456" cy="-178" rx="27" ry="18"/>
<text text-anchor="middle" x="456" y="-174.3" font-family="Times,serif" font-size="14.00">8</text>
</g>
<!-- 6&#45;&gt;8 -->
<g id="edge11" class="edge"><title>6&#45;&gt;8</title>
<path fill="none" stroke="black" d="M1032.7,-253.598C936.519,-241.157 603.676,-198.102 492.489,-183.72"/>
<polygon fill="black" stroke="black" points="492.803,-180.231 482.436,-182.42 491.905,-187.174 492.803,-180.231"/>
<text text-anchor="middle" x="825" y="-216.7" font-family="Times,serif" font-size="6.00">*[[61, 0],[61, 37]],[[61, 39],[61, 255]]*</text>
</g>
<!-- 9,14,0 -->
<g id="node10" class="node"><title>9,14,0</title>
<ellipse fill="none" stroke="blue" cx="853" cy="-98" rx="33.2209" ry="18"/>
<text text-anchor="middle" x="853" y="-94.3" font-family="Times,serif" font-size="14.00">9,14,0</text>
</g>
<!-- 6&#45;&gt;9,14,0 -->
<g id="edge12" class="edge"><title>6&#45;&gt;9,14,0</title>
<path fill="none" stroke="black" d="M1076.36,-243.932C1098.75,-225.404 1132.92,-190.373 1116,-160 1094.74,-121.831 964.966,-106.904 896.002,-101.61"/>
<polygon fill="black" stroke="black" points="896.114,-98.1088 885.885,-100.869 895.603,-105.09 896.114,-98.1088"/>
<text text-anchor="middle" x="1196.5" y="-176.7" font-family="Times,serif" font-size="6.00">*[[61, 59],[61, 59]],[[61, 96],[61, 96]],[[61, 124],[61, 124]]*</text>
</g>
<!-- 10 -->
<g id="node11" class="node"><title>10</title>
<ellipse fill="none" stroke="yellow" cx="421" cy="-98" rx="27" ry="18"/>
<text text-anchor="middle" x="421" y="-94.3" font-family="Times,serif" font-size="14.00">10</text>
</g>
<!-- 6&#45;&gt;10 -->
<g id="edge13" class="edge"><title>6&#45;&gt;10</title>
<path fill="none" stroke="black" d="M1060.7,-239.776C1061.82,-217.834 1060.04,-180.328 1038,-160 995.241,-120.558 584.741,-104.231 458.049,-100.106"/>
<polygon fill="black" stroke="black" points="458.159,-96.6077 448.052,-99.7867 457.935,-103.604 458.159,-96.6077"/>
<text text-anchor="middle" x="1084" y="-176.7" font-family="Times,serif" font-size="6.00">*[[61, 36],[61, 36]]*</text>
</g>
<!-- 7&#45;&gt;8 -->
<g id="edge14" class="edge"><title>7&#45;&gt;8</title>
<path fill="none" stroke="black" d="M333.322,-245.41C348.164,-236.596 369.232,-224.274 388,-214 400.314,-207.259 414.057,-200.115 425.947,-194.052"/>
<polygon fill="black" stroke="black" points="427.687,-197.094 435.022,-189.449 424.52,-190.851 427.687,-197.094"/>
<text text-anchor="middle" x="483.5" y="-216.7" font-family="Times,serif" font-size="6.00">*[[0, 0],[37, 37]],[[0, 39],[37, 255]],[[39, 0],[255, 37]],[[39, 39],[255, 255]]*</text>
</g>
<!-- 7&#45;&gt;9,14,0 -->
<g id="edge15" class="edge"><title>7&#45;&gt;9,14,0</title>
<path fill="none" stroke="black" d="M340.904,-256.206C425.711,-253.491 683.652,-243.526 714,-222 738.661,-204.508 718.208,-178.658 742,-160 776.503,-132.942 806.029,-170.904 839,-142 843.69,-137.889 846.817,-132.189 848.9,-126.282"/>
<polygon fill="black" stroke="black" points="852.343,-126.951 851.511,-116.389 845.575,-125.165 852.343,-126.951"/>
<text text-anchor="middle" x="890" y="-176.7" font-family="Times,serif" font-size="6.00">*[[0, 59],[37, 59]],[[0, 96],[37, 96]],[[0, 124],[37, 124]],[[39, 59],[255, 59]],[[39, 96],[255, 96]],[[39, 124],[255, 124]]*</text>
</g>
<!-- 7&#45;&gt;10 -->
<g id="edge16" class="edge"><title>7&#45;&gt;10</title>
<path fill="none" stroke="black" d="M312.793,-239.968C311.974,-220.148 312.428,-186.725 322,-160 326.739,-146.768 329.13,-142.909 340,-134 353.607,-122.848 371.307,-114.658 386.689,-109.017"/>
<polygon fill="black" stroke="black" points="388.082,-112.239 396.396,-105.672 385.801,-105.621 388.082,-112.239"/>
<text text-anchor="middle" x="371" y="-176.7" font-family="Times,serif" font-size="6.00">*[[0, 36],[37, 36]],[[39, 36],[255, 36]]*</text>
</g>
<!-- 11,14,1 -->
<g id="node12" class="node"><title>11,14,1</title>
<ellipse fill="none" stroke="blue" cx="37" cy="-98" rx="37.5442" ry="18"/>
<text text-anchor="middle" x="37" y="-94.3" font-family="Times,serif" font-size="14.00">11,14,1</text>
</g>
<!-- 7&#45;&gt;11,14,1 -->
<g id="edge17" class="edge"><title>7&#45;&gt;11,14,1</title>
<path fill="none" stroke="black" d="M286.775,-255.783C218.872,-252.122 44.9672,-238.681 10,-196 -6.8665,-175.413 5.8788,-145.004 18.9797,-123.738"/>
<polygon fill="black" stroke="black" points="21.9928,-125.525 24.5309,-115.239 16.1321,-121.697 21.9928,-125.525"/>
<text text-anchor="middle" x="85.5" y="-176.7" font-family="Times,serif" font-size="6.00">*[[59, 0],[59, 255]],[[96, 0],[96, 255]],[[124, 0],[124, 255]]*</text>
</g>
<!-- 12,14,0 -->
<g id="node13" class="node"><title>12,14,0</title>
<ellipse fill="none" stroke="blue" cx="234" cy="-98" rx="37.5442" ry="18"/>
<text text-anchor="middle" x="234" y="-94.3" font-family="Times,serif" font-size="14.00">12,14,0</text>
</g>
<!-- 7&#45;&gt;12,14,0 -->
<g id="edge18" class="edge"><title>7&#45;&gt;12,14,0</title>
<path fill="none" stroke="black" d="M290.589,-248.573C253.23,-233.692 181.36,-198.847 152,-142 142.178,-122.982 164.758,-112.115 188.69,-106.064"/>
<polygon fill="black" stroke="black" points="189.596,-109.448 198.578,-103.829 188.052,-102.62 189.596,-109.448"/>
<text text-anchor="middle" x="224" y="-176.7" font-family="Times,serif" font-size="6.00">*[[36, 40],[36, 40]]*</text>
</g>
<!-- 8&#45;&gt;8 -->
<g id="edge19" class="edge"><title>8&#45;&gt;8</title>
<path fill="none" stroke="black" d="M480.989,-185.41C491.77,-186.017 501,-183.547 501,-178 501,-174.36 497.025,-172.045 491.245,-171.055"/>
<polygon fill="black" stroke="black" points="491.137,-167.546 480.989,-170.59 490.82,-174.539 491.137,-167.546"/>
<text text-anchor="middle" x="596.5" y="-176.7" font-family="Times,serif" font-size="6.00">*[[0, 0],[37, 37]],[[0, 39],[37, 255]],[[39, 0],[255, 37]],[[39, 39],[255, 255]]*</text>
</g>
<!-- 8&#45;&gt;9,14,0 -->
<g id="edge20" class="edge"><title>8&#45;&gt;9,14,0</title>
<path fill="none" stroke="black" d="M475.243,-165.05C492.365,-155.024 518.429,-141.218 543,-134 635.352,-106.869 748.879,-100.54 809.674,-99.206"/>
<polygon fill="black" stroke="black" points="809.747,-102.705 819.681,-99.0216 809.618,-95.7066 809.747,-102.705"/>
<text text-anchor="middle" x="691" y="-136.7" font-family="Times,serif" font-size="6.00">*[[0, 59],[37, 59]],[[0, 96],[37, 96]],[[0, 124],[37, 124]],[[39, 59],[255, 59]],[[39, 96],[255, 96]],[[39, 124],[255, 124]]*</text>
</g>
<!-- 8&#45;&gt;10 -->
<g id="edge21" class="edge"><title>8&#45;&gt;10</title>
<path fill="none" stroke="black" d="M438.596,-163.892C432.142,-157.985 425.538,-150.437 422,-142 419.923,-137.048 418.935,-131.486 418.586,-126.046"/>
<polygon fill="black" stroke="black" points="422.086,-125.931 418.588,-115.931 415.086,-125.93 422.086,-125.931"/>
<text text-anchor="middle" x="471" y="-136.7" font-family="Times,serif" font-size="6.00">*[[0, 36],[37, 36]],[[39, 36],[255, 36]]*</text>
</g>
<!-- 8&#45;&gt;11,14,1 -->
<g id="edge22" class="edge"><title>8&#45;&gt;11,14,1</title>
<path fill="none" stroke="black" d="M434.721,-166.696C428.498,-164.092 421.593,-161.587 415,-160 317.037,-136.414 288.178,-159.8 189,-142 150.076,-135.014 106.775,-122.255 76.3781,-112.443"/>
<polygon fill="black" stroke="black" points="77.1818,-109.024 66.5892,-109.241 75.0056,-115.677 77.1818,-109.024"/>
<text text-anchor="middle" x="264.5" y="-136.7" font-family="Times,serif" font-size="6.00">*[[59, 0],[59, 255]],[[96, 0],[96, 255]],[[124, 0],[124, 255]]*</text>
</g>
<!-- 8&#45;&gt;12,14,0 -->
<g id="edge23" class="edge"><title>8&#45;&gt;12,14,0</title>
<path fill="none" stroke="black" d="M433.98,-167.547C427.867,-165.011 421.204,-162.329 415,-160 388.807,-150.169 318.507,-126.796 273.624,-112.004"/>
<polygon fill="black" stroke="black" points="274.5,-108.608 263.907,-108.805 272.311,-115.257 274.5,-108.608"/>
<text text-anchor="middle" x="390" y="-136.7" font-family="Times,serif" font-size="6.00">*[[36, 40],[36, 40]]*</text>
</g>
<!-- 13,14,1 -->
<g id="node14" class="node"><title>13,14,1</title>
<ellipse fill="none" stroke="blue" cx="421" cy="-18" rx="37.5442" ry="18"/>
<text text-anchor="middle" x="421" y="-14.3" font-family="Times,serif" font-size="14.00">13,14,1</text>
</g>
<!-- 10&#45;&gt;13,14,1 -->
<g id="edge24" class="edge"><title>10&#45;&gt;13,14,1</title>
<path fill="none" stroke="black" d="M421,-79.6893C421,-69.8938 421,-57.4218 421,-46.335"/>
<polygon fill="black" stroke="black" points="424.5,-46.2623 421,-36.2623 417.5,-46.2624 424.5,-46.2623"/>
<text text-anchor="middle" x="447" y="-56.7" font-family="Times,serif" font-size="6.00">*[[40, 0],[40, 255]]*</text>
</g>
</g>
</svg>
