<?xml version="1.0" encoding="UTF-8" standalone="no"?>
<!DOCTYPE svg PUBLIC "-//W3C//DTD SVG 1.1//EN"
 "http://www.w3.org/Graphics/SVG/1.1/DTD/svg11.dtd">
<!-- Generated by graphviz version 2.30.1 (20180420.1509)
 -->
<!-- Title: %3 Pages: 1 -->
<svg width="1858pt" height="688pt"
 viewBox="0.00 0.00 1858.00 688.00" xmlns="http://www.w3.org/2000/svg" xmlns:xlink="http://www.w3.org/1999/xlink">
<g id="graph0" class="graph" transform="scale(1 1) rotate(0) translate(4 684)">
<title>%3</title>
<polygon fill="white" stroke="white" points="-4,5 -4,-684 1855,-684 1855,5 -4,5"/>
<!-- 0 -->
<g id="node1" class="node"><title>0</title>
<ellipse fill="none" stroke="black" cx="615" cy="-662" rx="27" ry="18"/>
<text text-anchor="middle" x="615" y="-658.3" font-family="Times,serif" font-size="14.00">0</text>
</g>
<!-- 28 -->
<g id="node2" class="node"><title>28</title>
<ellipse fill="none" stroke="orange" cx="700" cy="-528" rx="27" ry="18"/>
<text text-anchor="middle" x="700" y="-524.3" font-family="Times,serif" font-size="14.00">28</text>
</g>
<!-- 0&#45;&gt;28 -->
<g id="edge1" class="edge"><title>0&#45;&gt;28</title>
<path fill="none" stroke="black" d="M634.898,-649.772C644.16,-643.724 654.715,-635.542 662,-626 678.055,-604.97 688.169,-576.301 693.89,-555.59"/>
<polygon fill="black" stroke="black" points="697.294,-556.408 696.421,-545.85 690.519,-554.648 697.294,-556.408"/>
<text text-anchor="middle" x="768.5" y="-620.7" font-family="Times,serif" font-size="6.00">*[[38, 85],[38, 85]],[[38, 117],[38, 117]],[[63, 85],[63, 85]],[[63, 117],[63, 117]]*</text>
</g>
<!-- 30 -->
<g id="node3" class="node"><title>30</title>
<ellipse fill="none" stroke="orange" cx="515" cy="-582" rx="27" ry="18"/>
<text text-anchor="middle" x="515" y="-578.3" font-family="Times,serif" font-size="14.00">30</text>
</g>
<!-- 0&#45;&gt;30 -->
<g id="edge2" class="edge"><title>0&#45;&gt;30</title>
<path fill="none" stroke="black" d="M596.21,-648.88C586.41,-642.367 574.343,-634.041 564,-626 555.154,-619.122 545.822,-611.134 537.703,-603.921"/>
<polygon fill="black" stroke="black" points="539.826,-601.124 530.05,-597.038 535.144,-606.328 539.826,-601.124"/>
<text text-anchor="middle" x="613" y="-620.7" font-family="Times,serif" font-size="6.00">*[[0, 38],[255, 38]],[[0, 63],[255, 63]]*</text>
</g>
<!-- 26 -->
<g id="node15" class="node"><title>26</title>
<ellipse fill="none" stroke="red" cx="712" cy="-420" rx="27" ry="18"/>
<text text-anchor="middle" x="712" y="-416.3" font-family="Times,serif" font-size="14.00">26</text>
</g>
<!-- 28&#45;&gt;26 -->
<g id="edge25" class="edge"><title>28&#45;&gt;26</title>
<path fill="none" stroke="black" d="M701.928,-509.969C703.817,-493.279 706.727,-467.579 708.934,-448.084"/>
<polygon fill="black" stroke="black" points="712.43,-448.319 710.077,-437.988 705.474,-447.531 712.43,-448.319"/>
<text text-anchor="middle" x="815.5" y="-472.7" font-family="Times,serif" font-size="6.00">*[[83, 69],[83, 69]],[[83, 101],[83, 101]],[[115, 69],[115, 69]],[[115, 101],[115, 101]]*</text>
</g>
<!-- 27 -->
<g id="node16" class="node"><title>27</title>
<ellipse fill="none" stroke="red" cx="446" cy="-474" rx="27" ry="18"/>
<text text-anchor="middle" x="446" y="-470.3" font-family="Times,serif" font-size="14.00">27</text>
</g>
<!-- 30&#45;&gt;27 -->
<g id="edge26" class="edge"><title>30&#45;&gt;27</title>
<path fill="none" stroke="black" d="M490.306,-574.629C475.657,-569.467 458.203,-560.59 449,-546 440.87,-533.111 439.887,-516.131 441.047,-502.009"/>
<polygon fill="black" stroke="black" points="444.546,-502.229 442.269,-491.881 437.596,-501.39 444.546,-502.229"/>
<text text-anchor="middle" x="556.5" y="-526.7" font-family="Times,serif" font-size="6.00">*[[85, 83],[85, 83]],[[85, 115],[85, 115]],[[117, 83],[117, 83]],[[117, 115],[117, 115]]*</text>
</g>
<!-- 14,14,1 -->
<g id="node4" class="node"><title>14,14,1</title>
<ellipse fill="none" stroke="blue" cx="185" cy="-18" rx="37.5442" ry="18"/>
<text text-anchor="middle" x="185" y="-14.3" font-family="Times,serif" font-size="14.00">14,14,1</text>
</g>
<!-- 15,14,0 -->
<g id="node5" class="node"><title>15,14,0</title>
<ellipse fill="none" stroke="blue" cx="144" cy="-98" rx="37.5442" ry="18"/>
<text text-anchor="middle" x="144" y="-94.3" font-family="Times,serif" font-size="14.00">15,14,0</text>
</g>
<!-- 16,14,1 -->
<g id="node6" class="node"><title>16,14,1</title>
<ellipse fill="none" stroke="blue" cx="277" cy="-98" rx="37.5442" ry="18"/>
<text text-anchor="middle" x="277" y="-94.3" font-family="Times,serif" font-size="14.00">16,14,1</text>
</g>
<!-- 17,14,0 -->
<g id="node7" class="node"><title>17,14,0</title>
<ellipse fill="none" stroke="blue" cx="1325" cy="-98" rx="37.5442" ry="18"/>
<text text-anchor="middle" x="1325" y="-94.3" font-family="Times,serif" font-size="14.00">17,14,0</text>
</g>
<!-- 18,14,0 -->
<g id="node8" class="node"><title>18,14,0</title>
<ellipse fill="none" stroke="blue" cx="140" cy="-286" rx="37.5442" ry="18"/>
<text text-anchor="middle" x="140" y="-282.3" font-family="Times,serif" font-size="14.00">18,14,0</text>
</g>
<!-- 19 -->
<g id="node9" class="node"><title>19</title>
<ellipse fill="none" stroke="red" cx="667" cy="-98" rx="27" ry="18"/>
<text text-anchor="middle" x="667" y="-94.3" font-family="Times,serif" font-size="14.00">19</text>
</g>
<!-- 19&#45;&gt;14,14,1 -->
<g id="edge3" class="edge"><title>19&#45;&gt;14,14,1</title>
<path fill="none" stroke="black" d="M641.086,-92.8064C562.899,-80.1538 328.67,-42.2495 229.808,-26.2511"/>
<polygon fill="black" stroke="black" points="230.265,-22.7795 219.834,-24.637 229.146,-29.6896 230.265,-22.7795"/>
<text text-anchor="middle" x="467" y="-56.7" font-family="Times,serif" font-size="6.00">*[[40, 0],[40, 255]]*</text>
</g>
<!-- 20 -->
<g id="node10" class="node"><title>20</title>
<ellipse fill="none" stroke="red" cx="27" cy="-232" rx="27" ry="18"/>
<text text-anchor="middle" x="27" y="-228.3" font-family="Times,serif" font-size="14.00">20</text>
</g>
<!-- 20&#45;&gt;14,14,1 -->
<g id="edge4" class="edge"><title>20&#45;&gt;14,14,1</title>
<path fill="none" stroke="black" d="M31.0985,-214.077C39.149,-183.894 59.5852,-120.178 97,-80 112.859,-62.9705 134.249,-48.0099 151.97,-37.1667"/>
<polygon fill="black" stroke="black" points="154.048,-40.0029 160.853,-31.8826 150.47,-33.9868 154.048,-40.0029"/>
<text text-anchor="middle" x="87" y="-136.7" font-family="Times,serif" font-size="6.00">*[[40, 0],[40, 255]]*</text>
</g>
<!-- 21 -->
<g id="node11" class="node"><title>21</title>
<ellipse fill="none" stroke="red" cx="389" cy="-286" rx="27" ry="18"/>
<text text-anchor="middle" x="389" y="-282.3" font-family="Times,serif" font-size="14.00">21</text>
</g>
<!-- 21&#45;&gt;16,14,1 -->
<g id="edge5" class="edge"><title>21&#45;&gt;16,14,1</title>
<path fill="none" stroke="black" d="M362.366,-282.546C316.452,-276.718 223.444,-257.531 183,-196 167.584,-172.546 174.868,-153.557 195,-134 206.005,-123.309 220.782,-115.65 234.76,-110.277"/>
<polygon fill="black" stroke="black" points="235.996,-113.553 244.253,-106.914 233.658,-106.955 235.996,-113.553"/>
<text text-anchor="middle" x="258.5" y="-176.7" font-family="Times,serif" font-size="6.00">*[[59, 0],[59, 255]],[[96, 0],[96, 255]],[[124, 0],[124, 255]]*</text>
</g>
<!-- 21&#45;&gt;17,14,0 -->
<g id="edge6" class="edge"><title>21&#45;&gt;17,14,0</title>
<path fill="none" stroke="black" d="M416.143,-284.181C497.95,-281.494 741.146,-271.833 817,-250 867.05,-235.594 882.913,-231.523 921,-196 934.713,-183.211 927.422,-170.437 943,-160 997.072,-123.772 1188.25,-107.435 1277.92,-101.636"/>
<polygon fill="black" stroke="black" points="1278.32,-105.118 1288.08,-100.996 1277.88,-98.1316 1278.32,-105.118"/>
<text text-anchor="middle" x="1091" y="-176.7" font-family="Times,serif" font-size="6.00">*[[0, 59],[37, 59]],[[0, 96],[37, 96]],[[0, 124],[37, 124]],[[39, 59],[255, 59]],[[39, 96],[255, 96]],[[39, 124],[255, 124]]*</text>
</g>
<!-- 21&#45;&gt;19 -->
<g id="edge7" class="edge"><title>21&#45;&gt;19</title>
<path fill="none" stroke="black" d="M416.119,-284.391C502.231,-282.224 765.546,-273.701 795,-250 827.637,-223.738 794.454,-190.659 823,-160 839.003,-142.812 884.122,-151.967 869,-134 848.363,-109.479 756.793,-102.137 704.304,-99.9392"/>
<polygon fill="black" stroke="black" points="704.172,-96.4319 694.048,-99.5542 703.91,-103.427 704.172,-96.4319"/>
<text text-anchor="middle" x="872" y="-176.7" font-family="Times,serif" font-size="6.00">*[[0, 36],[37, 36]],[[39, 36],[255, 36]]*</text>
</g>
<!-- 23 -->
<g id="node12" class="node"><title>23</title>
<ellipse fill="none" stroke="red" cx="453" cy="-178" rx="27" ry="18"/>
<text text-anchor="middle" x="453" y="-174.3" font-family="Times,serif" font-size="14.00">23</text>
</g>
<!-- 21&#45;&gt;23 -->
<g id="edge8" class="edge"><title>21&#45;&gt;23</title>
<path fill="none" stroke="black" d="M384.71,-267.928C381.875,-252.678 380.257,-230.294 390,-214 393.808,-207.631 407.615,-199.649 421.336,-192.917"/>
<polygon fill="black" stroke="black" points="423.152,-195.929 430.697,-188.491 420.16,-189.601 423.152,-195.929"/>
<text text-anchor="middle" x="485.5" y="-230.7" font-family="Times,serif" font-size="6.00">*[[0, 0],[37, 37]],[[0, 39],[37, 255]],[[39, 0],[255, 37]],[[39, 39],[255, 255]]*</text>
</g>
<!-- 21&#45;&gt;15,14,0 -->
<g id="edge9" class="edge"><title>21&#45;&gt;15,14,0</title>
<path fill="none" stroke="black" d="M362.073,-283.925C323.438,-281.562 250.688,-274.021 194,-250 156.181,-233.974 137.726,-232.557 119,-196 107.296,-173.151 117.403,-144.399 128.059,-124.15"/>
<polygon fill="black" stroke="black" points="131.226,-125.658 133.078,-115.226 125.125,-122.226 131.226,-125.658"/>
<text text-anchor="middle" x="145" y="-176.7" font-family="Times,serif" font-size="6.00">*[[36, 40],[36, 40]]*</text>
</g>
<!-- 23&#45;&gt;16,14,1 -->
<g id="edge10" class="edge"><title>23&#45;&gt;16,14,1</title>
<path fill="none" stroke="black" d="M431.662,-166.925C425.438,-164.325 418.547,-161.765 412,-160 382.99,-152.18 298.042,-164.384 278,-142 274.14,-137.689 272.525,-132.047 272.15,-126.275"/>
<polygon fill="black" stroke="black" points="275.659,-126.148 272.597,-116.005 268.665,-125.844 275.659,-126.148"/>
<text text-anchor="middle" x="353.5" y="-136.7" font-family="Times,serif" font-size="6.00">*[[59, 0],[59, 255]],[[96, 0],[96, 255]],[[124, 0],[124, 255]]*</text>
</g>
<!-- 23&#45;&gt;17,14,0 -->
<g id="edge11" class="edge"><title>23&#45;&gt;17,14,0</title>
<path fill="none" stroke="black" d="M479.573,-174.623C602.76,-163.604 1118.98,-117.428 1278.1,-103.195"/>
<polygon fill="black" stroke="black" points="1278.85,-106.643 1288.49,-102.265 1278.22,-99.6704 1278.85,-106.643"/>
<text text-anchor="middle" x="1064" y="-136.7" font-family="Times,serif" font-size="6.00">*[[0, 59],[37, 59]],[[0, 96],[37, 96]],[[0, 124],[37, 124]],[[39, 59],[255, 59]],[[39, 96],[255, 96]],[[39, 124],[255, 124]]*</text>
</g>
<!-- 23&#45;&gt;15,14,0 -->
<g id="edge12" class="edge"><title>23&#45;&gt;15,14,0</title>
<path fill="none" stroke="black" d="M431.707,-166.752C425.484,-164.148 418.582,-161.63 412,-160 327.947,-139.182 300.479,-168.371 218,-142 201.901,-136.853 185.499,-127.79 172.241,-119.308"/>
<polygon fill="black" stroke="black" points="173.876,-116.192 163.607,-113.583 170.008,-122.026 173.876,-116.192"/>
<text text-anchor="middle" x="244" y="-136.7" font-family="Times,serif" font-size="6.00">*[[36, 40],[36, 40]]*</text>
</g>
<!-- 23&#45;&gt;19 -->
<g id="edge13" class="edge"><title>23&#45;&gt;19</title>
<path fill="none" stroke="black" d="M447.692,-160.119C446.049,-151.363 446.002,-141.054 452,-134 474.383,-107.679 574.347,-101.101 629.74,-99.4916"/>
<polygon fill="black" stroke="black" points="629.953,-102.988 639.862,-99.2385 629.778,-95.9897 629.953,-102.988"/>
<text text-anchor="middle" x="501" y="-136.7" font-family="Times,serif" font-size="6.00">*[[0, 36],[37, 36]],[[39, 36],[255, 36]]*</text>
</g>
<!-- 23&#45;&gt;23 -->
<g id="edge14" class="edge"><title>23&#45;&gt;23</title>
<path fill="none" stroke="black" d="M477.989,-185.41C488.77,-186.017 498,-183.547 498,-178 498,-174.36 494.025,-172.045 488.245,-171.055"/>
<polygon fill="black" stroke="black" points="488.137,-167.546 477.989,-170.59 487.82,-174.539 488.137,-167.546"/>
<text text-anchor="middle" x="593.5" y="-176.7" font-family="Times,serif" font-size="6.00">*[[0, 0],[37, 37]],[[0, 39],[37, 255]],[[39, 0],[255, 37]],[[39, 39],[255, 255]]*</text>
</g>
<!-- 24 -->
<g id="node13" class="node"><title>24</title>
<ellipse fill="none" stroke="red" cx="939" cy="-286" rx="27" ry="18"/>
<text text-anchor="middle" x="939" y="-282.3" font-family="Times,serif" font-size="14.00">24</text>
</g>
<!-- 24&#45;&gt;15,14,0 -->
<g id="edge15" class="edge"><title>24&#45;&gt;15,14,0</title>
<path fill="none" stroke="black" d="M911.904,-284.875C806.006,-284.177 423.725,-279.609 379,-250 341.71,-225.313 370.451,-185.911 334,-160 283.227,-123.909 252.015,-167.096 195,-142 184.125,-137.213 173.776,-129.357 165.277,-121.661"/>
<polygon fill="black" stroke="black" points="167.677,-119.112 158.031,-114.73 162.838,-124.171 167.677,-119.112"/>
<text text-anchor="middle" x="381" y="-176.7" font-family="Times,serif" font-size="6.00">*[[36, 40],[36, 40]]*</text>
</g>
<!-- 24&#45;&gt;16,14,1 -->
<g id="edge16" class="edge"><title>24&#45;&gt;16,14,1</title>
<path fill="none" stroke="black" d="M965.373,-281.329C1032.89,-271.337 1209.04,-241.331 1243,-196 1261.02,-171.947 1243.7,-145.667 1216,-134 1156.07,-108.757 695.98,-118.56 631,-116 521.138,-111.672 392.171,-105.103 324.296,-101.531"/>
<polygon fill="black" stroke="black" points="324.11,-98.0161 313.939,-100.984 323.741,-105.006 324.11,-98.0161"/>
<text text-anchor="middle" x="1326.5" y="-176.7" font-family="Times,serif" font-size="6.00">*[[59, 0],[59, 255]],[[96, 0],[96, 255]],[[124, 0],[124, 255]]*</text>
</g>
<!-- 24&#45;&gt;17,14,0 -->
<g id="edge17" class="edge"><title>24&#45;&gt;17,14,0</title>
<path fill="none" stroke="black" d="M966.313,-284.789C1034.53,-283.825 1217.61,-278.552 1367,-250 1447.78,-234.56 1495.06,-262.1 1544,-196 1590.77,-132.832 1449.09,-110.064 1371.74,-102.474"/>
<polygon fill="black" stroke="black" points="1372.02,-98.9842 1361.74,-101.541 1371.37,-105.954 1372.02,-98.9842"/>
<text text-anchor="middle" x="1702" y="-176.7" font-family="Times,serif" font-size="6.00">*[[0, 59],[37, 59]],[[0, 96],[37, 96]],[[0, 124],[37, 124]],[[39, 59],[255, 59]],[[39, 96],[255, 96]],[[39, 124],[255, 124]]*</text>
</g>
<!-- 24&#45;&gt;19 -->
<g id="edge18" class="edge"><title>24&#45;&gt;19</title>
<path fill="none" stroke="black" d="M966.188,-284.727C1025.58,-283.601 1171.05,-277.954 1289,-250 1361.34,-232.855 1477.67,-217.049 1430,-160 1383.03,-103.792 850.998,-99.1555 704.273,-98.9509"/>
<polygon fill="black" stroke="black" points="703.998,-95.4508 693.995,-98.9431 703.993,-102.451 703.998,-95.4508"/>
<text text-anchor="middle" x="1491" y="-176.7" font-family="Times,serif" font-size="6.00">*[[0, 36],[37, 36]],[[39, 36],[255, 36]]*</text>
</g>
<!-- 24&#45;&gt;23 -->
<g id="edge19" class="edge"><title>24&#45;&gt;23</title>
<path fill="none" stroke="black" d="M913.555,-279.45C832.689,-261.813 581.428,-207.011 488.244,-186.687"/>
<polygon fill="black" stroke="black" points="488.709,-183.206 478.193,-184.495 487.218,-190.045 488.709,-183.206"/>
<text text-anchor="middle" x="863.5" y="-230.7" font-family="Times,serif" font-size="6.00">*[[0, 0],[37, 37]],[[0, 39],[37, 255]],[[39, 0],[255, 37]],[[39, 39],[255, 255]]*</text>
</g>
<!-- 25 -->
<g id="node14" class="node"><title>25</title>
<ellipse fill="none" stroke="red" cx="351" cy="-366" rx="27" ry="18"/>
<text text-anchor="middle" x="351" y="-362.3" font-family="Times,serif" font-size="14.00">25</text>
</g>
<!-- 25&#45;&gt;18,14,0 -->
<g id="edge20" class="edge"><title>25&#45;&gt;18,14,0</title>
<path fill="none" stroke="black" d="M323.75,-364.591C272.418,-363.187 164.43,-357.015 141,-330 137.208,-325.628 135.621,-319.962 135.25,-314.187"/>
<polygon fill="black" stroke="black" points="138.758,-314.067 135.685,-303.928 131.765,-313.771 138.758,-314.067"/>
<text text-anchor="middle" x="216.5" y="-324.7" font-family="Times,serif" font-size="6.00">*[[61, 59],[61, 59]],[[61, 96],[61, 96]],[[61, 124],[61, 124]]*</text>
</g>
<!-- 25&#45;&gt;20 -->
<g id="edge21" class="edge"><title>25&#45;&gt;20</title>
<path fill="none" stroke="black" d="M334.2,-351.652C322.656,-342.76 306.799,-331.083 292,-322 246.939,-294.343 236.341,-284.162 186,-268 135.07,-251.649 118.466,-264.576 67,-250 63.9757,-249.143 60.8766,-248.116 57.807,-246.995"/>
<polygon fill="black" stroke="black" points="58.8164,-243.63 48.2306,-243.194 56.2342,-250.136 58.8164,-243.63"/>
<text text-anchor="middle" x="330" y="-324.7" font-family="Times,serif" font-size="6.00">*[[61, 36],[61, 36]]*</text>
</g>
<!-- 25&#45;&gt;21 -->
<g id="edge22" class="edge"><title>25&#45;&gt;21</title>
<path fill="none" stroke="black" d="M359.059,-348.458C364.182,-337.943 370.914,-324.123 376.697,-312.253"/>
<polygon fill="black" stroke="black" points="379.85,-313.773 381.083,-303.25 373.557,-310.707 379.85,-313.773"/>
<text text-anchor="middle" x="421" y="-324.7" font-family="Times,serif" font-size="6.00">*[[61, 0],[61, 37]],[[61, 39],[61, 255]]*</text>
</g>
<!-- 26&#45;&gt;24 -->
<g id="edge23" class="edge"><title>26&#45;&gt;24</title>
<path fill="none" stroke="black" d="M731.748,-407.517C771.995,-384.113 863.651,-330.815 910.411,-303.624"/>
<polygon fill="black" stroke="black" points="912.251,-306.603 919.136,-298.551 908.732,-300.552 912.251,-306.603"/>
<text text-anchor="middle" x="883" y="-364.7" font-family="Times,serif" font-size="6.00">*[[82, 61],[82, 61]],[[114, 61],[114, 61]]*</text>
</g>
<!-- 27&#45;&gt;25 -->
<g id="edge24" class="edge"><title>27&#45;&gt;25</title>
<path fill="none" stroke="black" d="M432.791,-458.261C416.858,-440.483 389.903,-410.407 371.317,-389.669"/>
<polygon fill="black" stroke="black" points="373.684,-387.066 364.403,-381.955 368.471,-391.738 373.684,-387.066"/>
<text text-anchor="middle" x="520.5" y="-418.7" font-family="Times,serif" font-size="6.00">*[[69, 82],[69, 82]],[[69, 114],[69, 114]],[[101, 82],[101, 82]],[[101, 114],[101, 114]]*</text>
</g>
</g>
</svg>
