<?xml version="1.0" encoding="UTF-8" standalone="no"?>
<!DOCTYPE svg PUBLIC "-//W3C//DTD SVG 1.1//EN"
 "http://www.w3.org/Graphics/SVG/1.1/DTD/svg11.dtd">
<!-- Generated by graphviz version 2.30.1 (20180420.1509)
 -->
<!-- Title: %3 Pages: 1 -->
<svg width="2053pt" height="848pt"
 viewBox="0.00 0.00 2053.00 848.00" xmlns="http://www.w3.org/2000/svg" xmlns:xlink="http://www.w3.org/1999/xlink">
<g id="graph0" class="graph" transform="scale(1 1) rotate(0) translate(4 844)">
<title>%3</title>
<polygon fill="white" stroke="white" points="-4,5 -4,-844 2050,-844 2050,5 -4,5"/>
<!-- 0 -->
<g id="node1" class="node"><title>0</title>
<ellipse fill="none" stroke="black" cx="634" cy="-822" rx="27" ry="18"/>
<text text-anchor="middle" x="634" y="-818.3" font-family="Times,serif" font-size="14.00">0</text>
</g>
<!-- 32 -->
<g id="node2" class="node"><title>32</title>
<ellipse fill="none" stroke="green" cx="634" cy="-742" rx="27" ry="18"/>
<text text-anchor="middle" x="634" y="-738.3" font-family="Times,serif" font-size="14.00">32</text>
</g>
<!-- 0&#45;&gt;32 -->
<g id="edge1" class="edge"><title>0&#45;&gt;32</title>
<path fill="none" stroke="black" d="M634,-803.689C634,-793.894 634,-781.422 634,-770.335"/>
<polygon fill="black" stroke="black" points="637.5,-770.262 634,-760.262 630.5,-770.262 637.5,-770.262"/>
<text text-anchor="middle" x="660" y="-780.7" font-family="Times,serif" font-size="6.00">*[[0, 0],[255, 255]]*</text>
</g>
<!-- 28 -->
<g id="node3" class="node"><title>28</title>
<ellipse fill="none" stroke="green" cx="1088" cy="-580" rx="27" ry="18"/>
<text text-anchor="middle" x="1088" y="-576.3" font-family="Times,serif" font-size="14.00">28</text>
</g>
<!-- 0&#45;&gt;28 -->
<g id="edge2" class="edge"><title>0&#45;&gt;28</title>
<path fill="none" stroke="black" d="M659.629,-815.434C727.385,-799.704 914.442,-749.593 1037,-652 1052.63,-639.552 1065.68,-621.126 1074.66,-606.165"/>
<polygon fill="black" stroke="black" points="1077.76,-607.794 1079.71,-597.381 1071.69,-604.303 1077.76,-607.794"/>
<text text-anchor="middle" x="1019.5" y="-740.7" font-family="Times,serif" font-size="6.00">*[[38, 85],[38, 85]],[[38, 117],[38, 117]],[[63, 85],[63, 85]],[[63, 117],[63, 117]]*</text>
</g>
<!-- 30 -->
<g id="node4" class="node"><title>30</title>
<ellipse fill="none" stroke="green" cx="349" cy="-688" rx="27" ry="18"/>
<text text-anchor="middle" x="349" y="-684.3" font-family="Times,serif" font-size="14.00">30</text>
</g>
<!-- 0&#45;&gt;30 -->
<g id="edge3" class="edge"><title>0&#45;&gt;30</title>
<path fill="none" stroke="black" d="M609.689,-813.84C588.765,-807.399 557.939,-797.242 532,-786 475.516,-761.519 412.737,-726.4 377.343,-705.82"/>
<polygon fill="black" stroke="black" points="378.934,-702.696 368.535,-700.669 375.4,-708.739 378.934,-702.696"/>
<text text-anchor="middle" x="581" y="-780.7" font-family="Times,serif" font-size="6.00">*[[0, 38],[255, 38]],[[0, 63],[255, 63]]*</text>
</g>
<!-- 33 -->
<g id="node21" class="node"><title>33</title>
<ellipse fill="none" stroke="red" cx="634" cy="-634" rx="27" ry="18"/>
<text text-anchor="middle" x="634" y="-630.3" font-family="Times,serif" font-size="14.00">33</text>
</g>
<!-- 32&#45;&gt;33 -->
<g id="edge35" class="edge"><title>32&#45;&gt;33</title>
<path fill="none" stroke="black" d="M634,-723.969C634,-707.378 634,-681.883 634,-662.431"/>
<polygon fill="black" stroke="black" points="637.5,-662.341 634,-652.341 630.5,-662.341 637.5,-662.341"/>
<text text-anchor="middle" x="660" y="-686.7" font-family="Times,serif" font-size="6.00">*[[0, 0],[255, 255]]*</text>
</g>
<!-- 29 -->
<g id="node19" class="node"><title>29</title>
<ellipse fill="none" stroke="red" cx="857" cy="-526" rx="27" ry="18"/>
<text text-anchor="middle" x="857" y="-522.3" font-family="Times,serif" font-size="14.00">29</text>
</g>
<!-- 32&#45;&gt;29 -->
<g id="edge36" class="edge"><title>32&#45;&gt;29</title>
<path fill="none" stroke="black" d="M657.011,-732.354C700.989,-714.549 796.705,-669.373 843,-598 851.39,-585.065 854.953,-568.216 856.39,-554.177"/>
<polygon fill="black" stroke="black" points="859.888,-554.328 857.118,-544.102 852.906,-553.823 859.888,-554.328"/>
<text text-anchor="middle" x="931.5" y="-632.7" font-family="Times,serif" font-size="6.00">*[[38, 85],[38, 85]],[[38, 117],[38, 117]],[[63, 85],[63, 85]],[[63, 117],[63, 117]]*</text>
</g>
<!-- 31 -->
<g id="node20" class="node"><title>31</title>
<ellipse fill="none" stroke="red" cx="485" cy="-526" rx="27" ry="18"/>
<text text-anchor="middle" x="485" y="-522.3" font-family="Times,serif" font-size="14.00">31</text>
</g>
<!-- 32&#45;&gt;31 -->
<g id="edge37" class="edge"><title>32&#45;&gt;31</title>
<path fill="none" stroke="black" d="M610.736,-732.725C579.75,-720.374 525.847,-693.972 500,-652 481.767,-622.393 480.402,-581.313 481.982,-554.452"/>
<polygon fill="black" stroke="black" points="485.491,-554.465 482.766,-544.226 478.512,-553.929 485.491,-554.465"/>
<text text-anchor="middle" x="549" y="-632.7" font-family="Times,serif" font-size="6.00">*[[0, 38],[255, 38]],[[0, 63],[255, 63]]*</text>
</g>
<!-- 26 -->
<g id="node17" class="node"><title>26</title>
<ellipse fill="none" stroke="red" cx="1088" cy="-446" rx="27" ry="18"/>
<text text-anchor="middle" x="1088" y="-442.3" font-family="Times,serif" font-size="14.00">26</text>
</g>
<!-- 28&#45;&gt;26 -->
<g id="edge31" class="edge"><title>28&#45;&gt;26</title>
<path fill="none" stroke="black" d="M1088,-561.743C1088,-539.509 1088,-500.599 1088,-474.325"/>
<polygon fill="black" stroke="black" points="1091.5,-474.261 1088,-464.261 1084.5,-474.261 1091.5,-474.261"/>
<text text-anchor="middle" x="1195.5" y="-524.7" font-family="Times,serif" font-size="6.00">*[[83, 69],[83, 69]],[[83, 101],[83, 101]],[[115, 69],[115, 69]],[[115, 101],[115, 101]]*</text>
</g>
<!-- 27 -->
<g id="node18" class="node"><title>27</title>
<ellipse fill="none" stroke="red" cx="255" cy="-446" rx="27" ry="18"/>
<text text-anchor="middle" x="255" y="-442.3" font-family="Times,serif" font-size="14.00">27</text>
</g>
<!-- 30&#45;&gt;27 -->
<g id="edge33" class="edge"><title>30&#45;&gt;27</title>
<path fill="none" stroke="black" d="M330.608,-674.413C309.943,-659.083 277.408,-631.097 263,-598 245.472,-557.736 247.435,-505.619 250.901,-474.331"/>
<polygon fill="black" stroke="black" points="254.401,-474.541 252.16,-464.186 247.455,-473.679 254.401,-474.541"/>
<text text-anchor="middle" x="370.5" y="-578.7" font-family="Times,serif" font-size="6.00">*[[85, 83],[85, 83]],[[85, 115],[85, 115]],[[117, 83],[117, 83]],[[117, 115],[117, 115]]*</text>
</g>
<!-- 14,14,1 -->
<g id="node5" class="node"><title>14,14,1</title>
<ellipse fill="none" stroke="blue" cx="483" cy="-18" rx="37.5442" ry="18"/>
<text text-anchor="middle" x="483" y="-14.3" font-family="Times,serif" font-size="14.00">14,14,1</text>
</g>
<!-- 15,14,0 -->
<g id="node6" class="node"><title>15,14,0</title>
<ellipse fill="none" stroke="blue" cx="1538" cy="-98" rx="37.5442" ry="18"/>
<text text-anchor="middle" x="1538" y="-94.3" font-family="Times,serif" font-size="14.00">15,14,0</text>
</g>
<!-- 16,14,1 -->
<g id="node7" class="node"><title>16,14,1</title>
<ellipse fill="none" stroke="blue" cx="999" cy="-98" rx="37.5442" ry="18"/>
<text text-anchor="middle" x="999" y="-94.3" font-family="Times,serif" font-size="14.00">16,14,1</text>
</g>
<!-- 17,14,0 -->
<g id="node8" class="node"><title>17,14,0</title>
<ellipse fill="none" stroke="blue" cx="322" cy="-98" rx="37.5442" ry="18"/>
<text text-anchor="middle" x="322" y="-94.3" font-family="Times,serif" font-size="14.00">17,14,0</text>
</g>
<!-- 18,14,0 -->
<g id="node9" class="node"><title>18,14,0</title>
<ellipse fill="none" stroke="blue" cx="96" cy="-286" rx="37.5442" ry="18"/>
<text text-anchor="middle" x="96" y="-282.3" font-family="Times,serif" font-size="14.00">18,14,0</text>
</g>
<!-- 19 -->
<g id="node10" class="node"><title>19</title>
<ellipse fill="none" stroke="red" cx="1785" cy="-98" rx="27" ry="18"/>
<text text-anchor="middle" x="1785" y="-94.3" font-family="Times,serif" font-size="14.00">19</text>
</g>
<!-- 19&#45;&gt;14,14,1 -->
<g id="edge4" class="edge"><title>19&#45;&gt;14,14,1</title>
<path fill="none" stroke="black" d="M1758.36,-94.4989C1719.89,-90.9438 1646.53,-84.3758 1584,-80 1176.51,-51.4853 683.404,-28.126 530.507,-21.1383"/>
<polygon fill="black" stroke="black" points="530.241,-17.6227 520.092,-20.6636 529.922,-24.6154 530.241,-17.6227"/>
<text text-anchor="middle" x="1308" y="-56.7" font-family="Times,serif" font-size="6.00">*[[40, 0],[40, 255]]*</text>
</g>
<!-- 20 -->
<g id="node11" class="node"><title>20</title>
<ellipse fill="none" stroke="red" cx="27" cy="-232" rx="27" ry="18"/>
<text text-anchor="middle" x="27" y="-228.3" font-family="Times,serif" font-size="14.00">20</text>
</g>
<!-- 20&#45;&gt;14,14,1 -->
<g id="edge5" class="edge"><title>20&#45;&gt;14,14,1</title>
<path fill="none" stroke="black" d="M24.8851,-213.885C23.2469,-192.409 23.9679,-155.761 44,-134 97.4583,-75.9268 336.167,-38.3108 437.39,-24.7046"/>
<polygon fill="black" stroke="black" points="437.867,-28.1721 447.32,-23.3878 436.946,-21.2329 437.867,-28.1721"/>
<text text-anchor="middle" x="70" y="-136.7" font-family="Times,serif" font-size="6.00">*[[40, 0],[40, 255]]*</text>
</g>
<!-- 21 -->
<g id="node12" class="node"><title>21</title>
<ellipse fill="none" stroke="red" cx="951" cy="-286" rx="27" ry="18"/>
<text text-anchor="middle" x="951" y="-282.3" font-family="Times,serif" font-size="14.00">21</text>
</g>
<!-- 21&#45;&gt;16,14,1 -->
<g id="edge6" class="edge"><title>21&#45;&gt;16,14,1</title>
<path fill="none" stroke="black" d="M931.099,-273.823C888.53,-248.53 795.742,-185.123 837,-134 851.274,-116.313 909.62,-107.127 952.211,-102.686"/>
<polygon fill="black" stroke="black" points="952.783,-106.146 962.391,-101.681 952.096,-99.18 952.783,-106.146"/>
<text text-anchor="middle" x="914.5" y="-176.7" font-family="Times,serif" font-size="6.00">*[[59, 0],[59, 255]],[[96, 0],[96, 255]],[[124, 0],[124, 255]]*</text>
</g>
<!-- 21&#45;&gt;17,14,0 -->
<g id="edge7" class="edge"><title>21&#45;&gt;17,14,0</title>
<path fill="none" stroke="black" d="M925.552,-279.868C904.313,-274.736 873.92,-265.36 851,-250 833.217,-238.082 838.405,-223.04 819,-214 786.304,-198.769 195.149,-221.856 170,-196 130.878,-155.778 221.051,-124.329 278.644,-109.085"/>
<polygon fill="black" stroke="black" points="279.818,-112.397 288.631,-106.516 278.074,-105.617 279.818,-112.397"/>
<text text-anchor="middle" x="318" y="-176.7" font-family="Times,serif" font-size="6.00">*[[0, 59],[37, 59]],[[0, 96],[37, 96]],[[0, 124],[37, 124]],[[39, 59],[255, 59]],[[39, 96],[255, 96]],[[39, 124],[255, 124]]*</text>
</g>
<!-- 21&#45;&gt;19 -->
<g id="edge8" class="edge"><title>21&#45;&gt;19</title>
<path fill="none" stroke="black" d="M978.046,-283.711C1044.93,-280.258 1216.54,-269.693 1270,-250 1296.72,-240.156 1297.18,-226.011 1323,-214 1349.79,-201.537 1360.1,-208.233 1387,-196 1413.59,-183.904 1414.58,-170.083 1442,-160 1502.12,-137.891 1521.85,-152.742 1585,-142 1643.3,-132.083 1710.37,-116.876 1750.14,-107.455"/>
<polygon fill="black" stroke="black" points="1750.96,-110.857 1759.88,-105.134 1749.34,-104.047 1750.96,-110.857"/>
<text text-anchor="middle" x="1491" y="-176.7" font-family="Times,serif" font-size="6.00">*[[0, 36],[37, 36]],[[39, 36],[255, 36]]*</text>
</g>
<!-- 23 -->
<g id="node13" class="node"><title>23</title>
<ellipse fill="none" stroke="red" cx="1142" cy="-178" rx="27" ry="18"/>
<text text-anchor="middle" x="1142" y="-174.3" font-family="Times,serif" font-size="14.00">23</text>
</g>
<!-- 21&#45;&gt;23 -->
<g id="edge9" class="edge"><title>21&#45;&gt;23</title>
<path fill="none" stroke="black" d="M971.079,-273.856C1005.04,-255.009 1073.94,-216.774 1113.09,-195.043"/>
<polygon fill="black" stroke="black" points="1114.86,-198.066 1121.9,-190.153 1111.46,-191.946 1114.86,-198.066"/>
<text text-anchor="middle" x="1170.5" y="-230.7" font-family="Times,serif" font-size="6.00">*[[0, 0],[37, 37]],[[0, 39],[37, 255]],[[39, 0],[255, 37]],[[39, 39],[255, 255]]*</text>
</g>
<!-- 21&#45;&gt;15,14,0 -->
<g id="edge10" class="edge"><title>21&#45;&gt;15,14,0</title>
<path fill="none" stroke="black" d="M958.993,-268.35C973.484,-240.273 1007,-184.206 1054,-160 1105.09,-133.684 1255,-149.384 1312,-142 1316.51,-141.415 1429.14,-119.87 1493.66,-107.504"/>
<polygon fill="black" stroke="black" points="1494.42,-110.923 1503.58,-105.603 1493.1,-104.049 1494.42,-110.923"/>
<text text-anchor="middle" x="1080" y="-176.7" font-family="Times,serif" font-size="6.00">*[[36, 40],[36, 40]]*</text>
</g>
<!-- 23&#45;&gt;16,14,1 -->
<g id="edge16" class="edge"><title>23&#45;&gt;16,14,1</title>
<path fill="none" stroke="black" d="M1152.11,-161.281C1156.4,-152.459 1159.15,-141.709 1153,-134 1139.74,-117.392 1086.08,-108.065 1045.8,-103.29"/>
<polygon fill="black" stroke="black" points="1045.95,-99.7844 1035.62,-102.144 1045.17,-106.741 1045.95,-99.7844"/>
<text text-anchor="middle" x="1232.5" y="-136.7" font-family="Times,serif" font-size="6.00">*[[59, 0],[59, 255]],[[96, 0],[96, 255]],[[124, 0],[124, 255]]*</text>
</g>
<!-- 23&#45;&gt;17,14,0 -->
<g id="edge17" class="edge"><title>23&#45;&gt;17,14,0</title>
<path fill="none" stroke="black" d="M1120.73,-166.666C1114.5,-164.062 1107.6,-161.564 1101,-160 993.468,-134.509 963.188,-150.46 853,-142 674.077,-128.263 461.352,-110.649 368.838,-102.925"/>
<polygon fill="black" stroke="black" points="368.943,-99.4217 358.686,-102.077 368.36,-106.397 368.943,-99.4217"/>
<text text-anchor="middle" x="1001" y="-136.7" font-family="Times,serif" font-size="6.00">*[[0, 59],[37, 59]],[[0, 96],[37, 96]],[[0, 124],[37, 124]],[[39, 59],[255, 59]],[[39, 96],[255, 96]],[[39, 124],[255, 124]]*</text>
</g>
<!-- 23&#45;&gt;15,14,0 -->
<g id="edge18" class="edge"><title>23&#45;&gt;15,14,0</title>
<path fill="none" stroke="black" d="M1168.49,-174.049C1208.61,-169.251 1287,-158.593 1352,-142 1362.49,-139.323 1364.58,-136.919 1375,-134 1414.61,-122.904 1460.48,-113.341 1493.45,-107.029"/>
<polygon fill="black" stroke="black" points="1494.5,-110.393 1503.67,-105.096 1493.2,-103.514 1494.5,-110.393"/>
<text text-anchor="middle" x="1401" y="-136.7" font-family="Times,serif" font-size="6.00">*[[36, 40],[36, 40]]*</text>
</g>
<!-- 23&#45;&gt;19 -->
<g id="edge19" class="edge"><title>23&#45;&gt;19</title>
<path fill="none" stroke="black" d="M1168.41,-173.797C1269.47,-161.537 1631.87,-117.576 1748.54,-103.423"/>
<polygon fill="black" stroke="black" points="1749.22,-106.866 1758.73,-102.187 1748.38,-99.9166 1749.22,-106.866"/>
<text text-anchor="middle" x="1532" y="-136.7" font-family="Times,serif" font-size="6.00">*[[0, 36],[37, 36]],[[39, 36],[255, 36]]*</text>
</g>
<!-- 23&#45;&gt;23 -->
<g id="edge20" class="edge"><title>23&#45;&gt;23</title>
<path fill="none" stroke="black" d="M1166.99,-185.41C1177.77,-186.017 1187,-183.547 1187,-178 1187,-174.36 1183.02,-172.045 1177.24,-171.055"/>
<polygon fill="black" stroke="black" points="1177.14,-167.546 1166.99,-170.59 1176.82,-174.539 1177.14,-167.546"/>
<text text-anchor="middle" x="1282.5" y="-176.7" font-family="Times,serif" font-size="6.00">*[[0, 0],[37, 37]],[[0, 39],[37, 255]],[[39, 0],[255, 37]],[[39, 39],[255, 255]]*</text>
</g>
<!-- 22 -->
<g id="node14" class="node"><title>22</title>
<ellipse fill="none" stroke="red" cx="1445" cy="-286" rx="27" ry="18"/>
<text text-anchor="middle" x="1445" y="-282.3" font-family="Times,serif" font-size="14.00">22</text>
</g>
<!-- 22&#45;&gt;16,14,1 -->
<g id="edge11" class="edge"><title>22&#45;&gt;16,14,1</title>
<path fill="none" stroke="black" d="M1471.5,-281.834C1491.87,-277.927 1518.99,-269.243 1534,-250 1537.99,-244.882 1552.44,-138.734 1548,-134 1530.94,-115.818 1176.34,-104.008 1046.28,-100.274"/>
<polygon fill="black" stroke="black" points="1046.32,-96.7741 1036.22,-99.9889 1046.12,-103.771 1046.32,-96.7741"/>
<text text-anchor="middle" x="1623.5" y="-176.7" font-family="Times,serif" font-size="6.00">*[[59, 0],[59, 255]],[[96, 0],[96, 255]],[[124, 0],[124, 255]]*</text>
</g>
<!-- 22&#45;&gt;17,14,0 -->
<g id="edge12" class="edge"><title>22&#45;&gt;17,14,0</title>
<path fill="none" stroke="black" d="M1418.15,-282.54C1371.72,-277.899 1278.74,-266.787 1251,-250 1233.66,-239.507 1241.09,-223.14 1223,-214 1153.95,-179.117 601.357,-217.342 527,-196 496.741,-187.315 494.111,-174.171 466,-160 430.822,-142.267 389.261,-125.039 359.854,-113.441"/>
<polygon fill="black" stroke="black" points="360.961,-110.116 350.374,-109.731 358.41,-116.635 360.961,-110.116"/>
<text text-anchor="middle" x="675" y="-176.7" font-family="Times,serif" font-size="6.00">*[[0, 59],[37, 59]],[[0, 96],[37, 96]],[[0, 124],[37, 124]],[[39, 59],[255, 59]],[[39, 96],[255, 96]],[[39, 124],[255, 124]]*</text>
</g>
<!-- 22&#45;&gt;19 -->
<g id="edge13" class="edge"><title>22&#45;&gt;19</title>
<path fill="none" stroke="black" d="M1472.17,-284.71C1558.39,-283.509 1821.7,-277.595 1847,-250 1881.6,-212.255 1836.47,-152.568 1806.92,-120.716"/>
<polygon fill="black" stroke="black" points="1809.24,-118.072 1799.81,-113.249 1804.17,-122.902 1809.24,-118.072"/>
<text text-anchor="middle" x="1905" y="-176.7" font-family="Times,serif" font-size="6.00">*[[0, 36],[37, 36]],[[39, 36],[255, 36]]*</text>
</g>
<!-- 22&#45;&gt;23 -->
<g id="edge14" class="edge"><title>22&#45;&gt;23</title>
<path fill="none" stroke="black" d="M1421.4,-277.219C1400.66,-270.306 1369.71,-259.805 1343,-250 1301.78,-234.871 1292.37,-228.719 1251,-214 1226.11,-205.142 1197.67,-196.045 1176.09,-189.346"/>
<polygon fill="black" stroke="black" points="1176.98,-185.958 1166.39,-186.355 1174.91,-192.647 1176.98,-185.958"/>
<text text-anchor="middle" x="1438.5" y="-230.7" font-family="Times,serif" font-size="6.00">*[[0, 0],[37, 37]],[[0, 39],[37, 255]],[[39, 0],[255, 37]],[[39, 39],[255, 255]]*</text>
</g>
<!-- 22&#45;&gt;15,14,0 -->
<g id="edge15" class="edge"><title>22&#45;&gt;15,14,0</title>
<path fill="none" stroke="black" d="M1472.2,-285.234C1527.09,-284.037 1650.37,-272.515 1703,-196 1736.73,-146.956 1642.46,-119.053 1582.81,-106.719"/>
<polygon fill="black" stroke="black" points="1583.33,-103.253 1572.84,-104.733 1581.97,-110.118 1583.33,-103.253"/>
<text text-anchor="middle" x="1737" y="-176.7" font-family="Times,serif" font-size="6.00">*[[36, 40],[36, 40]]*</text>
</g>
<!-- 24 -->
<g id="node15" class="node"><title>24</title>
<ellipse fill="none" stroke="red" cx="1351" cy="-366" rx="27" ry="18"/>
<text text-anchor="middle" x="1351" y="-362.3" font-family="Times,serif" font-size="14.00">24</text>
</g>
<!-- 24&#45;&gt;16,14,1 -->
<g id="edge21" class="edge"><title>24&#45;&gt;16,14,1</title>
<path fill="none" stroke="black" d="M1323.75,-364.769C1210.37,-363.165 778.346,-350.457 700,-250 639.854,-172.879 777.933,-211.078 798,-196 822.63,-177.493 804.57,-152.769 829,-134 848.025,-119.384 909.154,-109.409 952.649,-103.957"/>
<polygon fill="black" stroke="black" points="953.234,-107.412 962.739,-102.733 952.391,-100.463 953.234,-107.412"/>
<text text-anchor="middle" x="775.5" y="-230.7" font-family="Times,serif" font-size="6.00">*[[59, 0],[59, 255]],[[96, 0],[96, 255]],[[124, 0],[124, 255]]*</text>
</g>
<!-- 24&#45;&gt;17,14,0 -->
<g id="edge22" class="edge"><title>24&#45;&gt;17,14,0</title>
<path fill="none" stroke="black" d="M1323.78,-365.082C1196.99,-365.28 663.633,-364.036 501,-330 340.4,-296.39 249.601,-331.451 157,-196 139.613,-170.567 160.627,-148.136 188,-134 215.753,-119.668 249.844,-110.869 276.695,-105.678"/>
<polygon fill="black" stroke="black" points="277.398,-109.108 286.603,-103.861 276.135,-102.222 277.398,-109.108"/>
<text text-anchor="middle" x="351" y="-230.7" font-family="Times,serif" font-size="6.00">*[[0, 59],[37, 59]],[[0, 96],[37, 96]],[[0, 124],[37, 124]],[[39, 59],[255, 59]],[[39, 96],[255, 96]],[[39, 124],[255, 124]]*</text>
</g>
<!-- 24&#45;&gt;19 -->
<g id="edge23" class="edge"><title>24&#45;&gt;19</title>
<path fill="none" stroke="black" d="M1377.9,-363.073C1426.5,-359.242 1531.97,-349.321 1619,-330 1777.16,-294.889 1878.18,-336.981 1958,-196 1989.93,-139.607 1881.41,-113.705 1821.69,-103.941"/>
<polygon fill="black" stroke="black" points="1821.93,-100.435 1811.51,-102.354 1820.85,-107.351 1821.93,-100.435"/>
<text text-anchor="middle" x="1996" y="-230.7" font-family="Times,serif" font-size="6.00">*[[0, 36],[37, 36]],[[39, 36],[255, 36]]*</text>
</g>
<!-- 24&#45;&gt;22 -->
<g id="edge24" class="edge"><title>24&#45;&gt;22</title>
<path fill="none" stroke="black" d="M1367.37,-351.413C1382.2,-339.11 1404.23,-320.831 1421.04,-306.884"/>
<polygon fill="black" stroke="black" points="1423.35,-309.51 1428.81,-300.431 1418.88,-304.123 1423.35,-309.51"/>
<text text-anchor="middle" x="1496.5" y="-324.7" font-family="Times,serif" font-size="6.00">*[[0, 0],[37, 37]],[[0, 39],[37, 255]],[[39, 0],[255, 37]],[[39, 39],[255, 255]]*</text>
</g>
<!-- 24&#45;&gt;15,14,0 -->
<g id="edge25" class="edge"><title>24&#45;&gt;15,14,0</title>
<path fill="none" stroke="black" d="M1378.32,-365.614C1424.92,-365.695 1521.9,-361.616 1596,-330 1684.81,-292.108 1724.74,-282.814 1767,-196 1802.47,-123.144 1662.86,-104.978 1585.81,-100.471"/>
<polygon fill="black" stroke="black" points="1585.55,-96.9528 1575.38,-99.9218 1585.18,-103.943 1585.55,-96.9528"/>
<text text-anchor="middle" x="1784" y="-230.7" font-family="Times,serif" font-size="6.00">*[[36, 40],[36, 40]]*</text>
</g>
<!-- 25 -->
<g id="node16" class="node"><title>25</title>
<ellipse fill="none" stroke="red" cx="108" cy="-366" rx="27" ry="18"/>
<text text-anchor="middle" x="108" y="-362.3" font-family="Times,serif" font-size="14.00">25</text>
</g>
<!-- 25&#45;&gt;18,14,0 -->
<g id="edge26" class="edge"><title>25&#45;&gt;18,14,0</title>
<path fill="none" stroke="black" d="M101.65,-348.144C99.7939,-342.463 97.9976,-336.033 97,-330 96.1754,-325.013 95.7169,-319.657 95.4886,-314.476"/>
<polygon fill="black" stroke="black" points="98.9841,-314.195 95.2998,-304.261 91.9853,-314.324 98.9841,-314.195"/>
<text text-anchor="middle" x="172.5" y="-324.7" font-family="Times,serif" font-size="6.00">*[[61, 59],[61, 59]],[[61, 96],[61, 96]],[[61, 124],[61, 124]]*</text>
</g>
<!-- 25&#45;&gt;20 -->
<g id="edge27" class="edge"><title>25&#45;&gt;20</title>
<path fill="none" stroke="black" d="M83.4496,-358.388C68.7799,-353.133 51.0898,-344.242 41,-330 26.6773,-309.783 24.1189,-281.181 24.5754,-260.274"/>
<polygon fill="black" stroke="black" points="28.0788,-260.278 25.0426,-250.128 21.0862,-259.956 28.0788,-260.278"/>
<text text-anchor="middle" x="67" y="-324.7" font-family="Times,serif" font-size="6.00">*[[61, 36],[61, 36]]*</text>
</g>
<!-- 25&#45;&gt;21 -->
<g id="edge28" class="edge"><title>25&#45;&gt;21</title>
<path fill="none" stroke="black" d="M134.622,-362.537C257.761,-351.143 772.147,-303.549 914.403,-290.386"/>
<polygon fill="black" stroke="black" points="914.737,-293.87 924.372,-289.464 914.092,-286.9 914.737,-293.87"/>
<text text-anchor="middle" x="604" y="-324.7" font-family="Times,serif" font-size="6.00">*[[61, 0],[61, 37]],[[61, 39],[61, 255]]*</text>
</g>
<!-- 26&#45;&gt;24 -->
<g id="edge29" class="edge"><title>26&#45;&gt;24</title>
<path fill="none" stroke="black" d="M1112.27,-437.802C1159.34,-423.842 1263.12,-393.063 1317.02,-377.078"/>
<polygon fill="black" stroke="black" points="1318.2,-380.38 1326.79,-374.181 1316.21,-373.669 1318.2,-380.38"/>
<text text-anchor="middle" x="1280" y="-404.7" font-family="Times,serif" font-size="6.00">*[[82, 61],[82, 61]],[[114, 61],[114, 61]]*</text>
</g>
<!-- 27&#45;&gt;25 -->
<g id="edge30" class="edge"><title>27&#45;&gt;25</title>
<path fill="none" stroke="black" d="M234.56,-434.154C209.47,-420.841 166.715,-398.155 137.923,-382.878"/>
<polygon fill="black" stroke="black" points="139.214,-379.6 128.74,-378.005 135.933,-385.784 139.214,-379.6"/>
<text text-anchor="middle" x="293.5" y="-404.7" font-family="Times,serif" font-size="6.00">*[[69, 82],[69, 82]],[[69, 114],[69, 114]],[[101, 82],[101, 82]],[[101, 114],[101, 114]]*</text>
</g>
<!-- 29&#45;&gt;26 -->
<g id="edge32" class="edge"><title>29&#45;&gt;26</title>
<path fill="none" stroke="black" d="M853.102,-507.987C852.138,-499.192 852.801,-488.888 859,-482 883.885,-454.35 992.379,-448.384 1050.66,-447.202"/>
<polygon fill="black" stroke="black" points="1050.98,-450.698 1060.92,-447.033 1050.87,-443.699 1050.98,-450.698"/>
<text text-anchor="middle" x="966.5" y="-484.7" font-family="Times,serif" font-size="6.00">*[[83, 69],[83, 69]],[[83, 101],[83, 101]],[[115, 69],[115, 69]],[[115, 101],[115, 101]]*</text>
</g>
<!-- 31&#45;&gt;27 -->
<g id="edge34" class="edge"><title>31&#45;&gt;27</title>
<path fill="none" stroke="black" d="M461.252,-516.946C420.085,-502.985 335.375,-474.257 288.333,-458.304"/>
<polygon fill="black" stroke="black" points="289.213,-454.907 278.619,-455.01 286.965,-461.536 289.213,-454.907"/>
<text text-anchor="middle" x="484.5" y="-484.7" font-family="Times,serif" font-size="6.00">*[[85, 83],[85, 83]],[[85, 115],[85, 115]],[[117, 83],[117, 83]],[[117, 115],[117, 115]]*</text>
</g>
<!-- 33&#45;&gt;33 -->
<g id="edge38" class="edge"><title>33&#45;&gt;33</title>
<path fill="none" stroke="black" d="M656.691,-643.769C668.424,-645.272 679,-642.016 679,-634 679,-628.489 674.001,-625.228 667.064,-624.216"/>
<polygon fill="black" stroke="black" points="666.686,-620.717 656.691,-624.231 666.696,-627.717 666.686,-620.717"/>
<text text-anchor="middle" x="705" y="-632.7" font-family="Times,serif" font-size="6.00">*[[0, 0],[255, 255]]*</text>
</g>
<!-- 33&#45;&gt;29 -->
<g id="edge39" class="edge"><title>33&#45;&gt;29</title>
<path fill="none" stroke="black" d="M630.123,-616.053C627.541,-600.019 626.712,-576.333 640,-562 663.703,-536.433 764.122,-529.533 819.667,-527.677"/>
<polygon fill="black" stroke="black" points="819.922,-531.171 829.815,-527.377 819.716,-524.174 819.922,-531.171"/>
<text text-anchor="middle" x="741.5" y="-578.7" font-family="Times,serif" font-size="6.00">*[[38, 85],[38, 85]],[[38, 117],[38, 117]],[[63, 85],[63, 85]],[[63, 117],[63, 117]]*</text>
</g>
<!-- 33&#45;&gt;31 -->
<g id="edge40" class="edge"><title>33&#45;&gt;31</title>
<path fill="none" stroke="black" d="M611.188,-624.291C603.548,-621.497 594.951,-618.485 587,-616 557.16,-606.674 543.082,-617.936 519,-598 511.608,-591.88 502.094,-571.108 495.011,-553.601"/>
<polygon fill="black" stroke="black" points="498.075,-551.829 491.156,-543.806 491.561,-554.393 498.075,-551.829"/>
<text text-anchor="middle" x="568" y="-578.7" font-family="Times,serif" font-size="6.00">*[[0, 38],[255, 38]],[[0, 63],[255, 63]]*</text>
</g>
</g>
</svg>
